<svg xmlns="http://www.w3.org/2000/svg" xmlns:xlink="http://www.w3.org/1999/xlink" viewBox="0 0 1440 403.2"><defs><linearGradient id="linear-gradient" x1="1003.62" x2="1006.85" y1="92.41" y2="92.41" gradientUnits="userSpaceOnUse"><stop offset="0" stop-color="#2f2bb5"/><stop offset="1" stop-color="#4042f6"/></linearGradient><linearGradient id="linear-gradient-2" x1="986.95" x2="990.18" y1="82.55" y2="82.55" xlink:href="#linear-gradient"/><linearGradient id="linear-gradient-3" x1="1000.2" x2="1003.43" y1="79.13" y2="79.13" xlink:href="#linear-gradient"/><linearGradient id="linear-gradient-4" x1="990.36" x2="993.59" y1="95.81" y2="95.81" xlink:href="#linear-gradient"/><linearGradient id="linear-gradient-5" x1="1004.13" x2="1007.36" y1="85.2" y2="85.2" xlink:href="#linear-gradient"/><linearGradient id="linear-gradient-6" x1="986.44" x2="989.67" y1="89.75" y2="89.75" xlink:href="#linear-gradient"/><linearGradient id="linear-gradient-7" x1="993.02" x2="996.25" y1="78.62" y2="78.62" xlink:href="#linear-gradient"/><linearGradient id="linear-gradient-8" x1="997.51" x2="1000.78" y1="96.33" y2="96.33" xlink:href="#linear-gradient"/><linearGradient id="linear-gradient-9" x1="992.49" x2="1001.3" y1="87.48" y2="87.48" xlink:href="#linear-gradient"/><linearGradient id="linear-gradient-10" x1="470.16" x2="473.93" y1="326.05" y2="326.05" xlink:href="#linear-gradient"/><linearGradient id="linear-gradient-11" x1="463.22" x2="466.99" y1="304.55" y2="304.55" xlink:href="#linear-gradient"/><linearGradient id="linear-gradient-12" x1="477.45" x2="481.21" y1="311.81" y2="311.81" xlink:href="#linear-gradient"/><linearGradient id="linear-gradient-13" x1="455.95" x2="459.72" y1="318.77" y2="318.77" xlink:href="#linear-gradient"/><linearGradient id="linear-gradient-14" x1="476.18" x2="479.95" y1="320.15" y2="320.15" xlink:href="#linear-gradient"/><linearGradient id="linear-gradient-15" x1="457.21" x2="460.98" y1="310.45" y2="310.45" xlink:href="#linear-gradient"/><linearGradient id="linear-gradient-16" x1="471.57" x2="475.34" y1="305.8" y2="305.8" xlink:href="#linear-gradient"/><linearGradient id="linear-gradient-17" x1="461.79" x2="465.6" y1="324.77" y2="324.77" xlink:href="#linear-gradient"/><linearGradient id="linear-gradient-18" x1="463.08" x2="474.06" y1="315.3" y2="315.3" xlink:href="#linear-gradient"/><linearGradient id="linear-gradient-19" x1="1185.44" x2="1187.68" y1="273.42" y2="273.42" xlink:href="#linear-gradient"/><linearGradient id="linear-gradient-20" x1="1173.86" x2="1176.11" y1="266.57" y2="266.57" xlink:href="#linear-gradient"/><linearGradient id="linear-gradient-21" x1="1183.07" x2="1185.31" y1="264.19" y2="264.19" xlink:href="#linear-gradient"/><linearGradient id="linear-gradient-22" x1="1176.23" x2="1178.47" y1="275.77" y2="275.77" xlink:href="#linear-gradient"/><linearGradient id="linear-gradient-23" x1="1185.79" x2="1188.03" y1="268.41" y2="268.41" xlink:href="#linear-gradient"/><linearGradient id="linear-gradient-24" x1="1173.51" x2="1175.75" y1="271.57" y2="271.57" xlink:href="#linear-gradient"/><linearGradient id="linear-gradient-25" x1="1178.08" x2="1180.32" y1="263.83" y2="263.83" xlink:href="#linear-gradient"/><linearGradient id="linear-gradient-26" x1="1181.2" x2="1183.46" y1="276.14" y2="276.14" xlink:href="#linear-gradient"/><linearGradient id="linear-gradient-27" x1="1177.71" x2="1183.83" y1="269.99" y2="269.99" xlink:href="#linear-gradient"/><linearGradient id="linear-gradient-28" x1="237.4" x2="241.17" y1="31.76" y2="31.76" xlink:href="#linear-gradient"/><linearGradient id="linear-gradient-29" x1="244.97" x2="248.74" y1="10.47" y2="10.47" xlink:href="#linear-gradient"/><linearGradient id="linear-gradient-30" x1="251.85" x2="255.61" y1="24.89" y2="24.89" xlink:href="#linear-gradient"/><linearGradient id="linear-gradient-31" x1="230.55" x2="234.32" y1="17.34" y2="17.34" xlink:href="#linear-gradient"/><linearGradient id="linear-gradient-32" x1="245.77" x2="249.54" y1="30.74" y2="30.74" xlink:href="#linear-gradient"/><linearGradient id="linear-gradient-33" x1="236.61" x2="240.38" y1="11.5" y2="11.5" xlink:href="#linear-gradient"/><linearGradient id="linear-gradient-34" x1="250.83" x2="254.6" y1="16.55" y2="16.55" xlink:href="#linear-gradient"/><linearGradient id="linear-gradient-35" x1="231.53" x2="235.34" y1="25.67" y2="25.67" xlink:href="#linear-gradient"/><linearGradient id="linear-gradient-36" x1="237.61" x2="248.52" y1="21.12" y2="21.12" xlink:href="#linear-gradient"/><linearGradient id="linear-gradient-37" x1="96.26" x2="98.88" y1="238.85" y2="238.85" xlink:href="#linear-gradient"/><linearGradient id="linear-gradient-38" x1="106.83" x2="109.45" y1="227.26" y2="227.26" xlink:href="#linear-gradient"/><linearGradient id="linear-gradient-39" x1="107.36" x2="109.97" y1="238.34" y2="238.34" xlink:href="#linear-gradient"/><linearGradient id="linear-gradient-40" x1="95.76" x2="98.37" y1="227.78" y2="227.78" xlink:href="#linear-gradient"/><linearGradient id="linear-gradient-41" x1="101.89" x2="104.51" y1="240.45" y2="240.45" xlink:href="#linear-gradient"/><linearGradient id="linear-gradient-42" x1="101.2" x2="103.82" y1="225.67" y2="225.67" xlink:href="#linear-gradient"/><linearGradient id="linear-gradient-43" x1="108.95" x2="111.57" y1="232.72" y2="232.72" xlink:href="#linear-gradient"/><linearGradient id="linear-gradient-44" x1="94.14" x2="96.79" y1="233.38" y2="233.38" xlink:href="#linear-gradient"/><linearGradient id="linear-gradient-45" x1="99.6" x2="106.1" y1="233.05" y2="233.05" xlink:href="#linear-gradient"/><linearGradient id="linear-gradient-46" x1="712.84" x2="1241.58" y1="85.56" y2="69.65" xlink:href="#linear-gradient"/><linearGradient id="linear-gradient-47" x1="713.86" x2="1242.6" y1="119.54" y2="103.63" xlink:href="#linear-gradient"/><linearGradient id="linear-gradient-48" x1="716.72" x2="1245.45" y1="214.46" y2="198.55" xlink:href="#linear-gradient"/><linearGradient id="linear-gradient-49" x1="715.3" x2="1244.04" y1="167.36" y2="151.44" xlink:href="#linear-gradient"/><linearGradient id="linear-gradient-50" x1="717.81" x2="1246.54" y1="250.54" y2="234.63" xlink:href="#linear-gradient"/><linearGradient id="linear-gradient-51" x1="714.94" x2="1243.67" y1="155.26" y2="139.35" xlink:href="#linear-gradient"/><linearGradient id="linear-gradient-52" x1="714.77" x2="1243.5" y1="149.68" y2="133.77" xlink:href="#linear-gradient"/><linearGradient id="linear-gradient-53" x1="716.46" x2="1245.2" y1="205.93" y2="190.02" xlink:href="#linear-gradient"/><linearGradient id="linear-gradient-54" x1="717.17" x2="1245.91" y1="229.46" y2="213.55" xlink:href="#linear-gradient"/><linearGradient id="linear-gradient-55" x1="715.6" x2="1244.34" y1="177.35" y2="161.44" xlink:href="#linear-gradient"/><linearGradient id="linear-gradient-56" x1="715.35" x2="1244.09" y1="169.1" y2="153.19" xlink:href="#linear-gradient"/><linearGradient id="linear-gradient-57" x1="715.75" x2="1244.49" y1="182.34" y2="166.43" xlink:href="#linear-gradient"/><linearGradient id="linear-gradient-58" x1="716.17" x2="1244.9" y1="196.19" y2="180.28" xlink:href="#linear-gradient"/><linearGradient id="linear-gradient-59" x1="716.52" x2="1245.25" y1="207.78" y2="191.87" xlink:href="#linear-gradient"/><linearGradient id="linear-gradient-60" x1="715.96" x2="1244.69" y1="189.2" y2="173.29" xlink:href="#linear-gradient"/><linearGradient id="linear-gradient-61" x1="715.47" x2="1244.2" y1="172.91" y2="157" xlink:href="#linear-gradient"/><linearGradient id="linear-gradient-62" x1="731.87" x2="88.23" y1="182.81" y2="166.76" xlink:href="#linear-gradient"/><linearGradient id="linear-gradient-63" x1="731.7" x2="88.05" y1="189.68" y2="173.63" xlink:href="#linear-gradient"/><linearGradient id="linear-gradient-64" x1="731.91" x2="88.26" y1="181.41" y2="165.36" xlink:href="#linear-gradient"/><linearGradient id="linear-gradient-65" x1="732.32" x2="88.68" y1="164.81" y2="148.76" xlink:href="#linear-gradient"/><linearGradient id="linear-gradient-66" x1="731.58" x2="87.94" y1="194.49" y2="178.44" xlink:href="#linear-gradient"/><linearGradient id="linear-gradient-67" x1="731.18" x2="87.54" y1="210.53" y2="194.48" xlink:href="#linear-gradient"/><linearGradient id="linear-gradient-68" x1="732.57" x2="88.92" y1="154.89" y2="138.85" xlink:href="#linear-gradient"/><linearGradient id="linear-gradient-69" x1="732.31" x2="88.67" y1="165.06" y2="149.01" xlink:href="#linear-gradient"/><linearGradient id="linear-gradient-70" x1="730.6" x2="86.96" y1="233.75" y2="217.7" xlink:href="#linear-gradient"/><linearGradient id="linear-gradient-71" x1="733.25" x2="89.61" y1="127.45" y2="111.4" xlink:href="#linear-gradient"/><linearGradient id="linear-gradient-72" x1="735.34" x2="91.7" y1="43.61" y2="27.56" xlink:href="#linear-gradient"/><linearGradient id="linear-gradient-73" x1="728.83" x2="85.18" y1="304.85" y2="288.8" xlink:href="#linear-gradient"/><linearGradient id="linear-gradient-74" x1="733.53" x2="89.89" y1="116.2" y2="100.15" xlink:href="#linear-gradient"/><linearGradient id="linear-gradient-75" x1="730.35" x2="86.7" y1="243.86" y2="227.81" xlink:href="#linear-gradient"/><linearGradient id="linear-gradient-76" x1="734.04" x2="90.4" y1="95.77" y2="79.72" xlink:href="#linear-gradient"/><linearGradient id="linear-gradient-77" x1="729.21" x2="85.57" y1="289.39" y2="273.34" xlink:href="#linear-gradient"/><linearGradient id="linear-gradient-78" x1="733.19" x2="89.54" y1="130.03" y2="113.98" xlink:href="#linear-gradient"/><linearGradient id="linear-gradient-79" x1="734.54" x2="90.89" y1="75.87" y2="59.82" xlink:href="#linear-gradient"/><linearGradient id="linear-gradient-80" x1="730.86" x2="87.22" y1="223.26" y2="207.21" xlink:href="#linear-gradient"/><linearGradient id="linear-gradient-81" x1="712.09" x2="1240.83" y1="60.63" y2="44.72" xlink:href="#linear-gradient"/><linearGradient id="linear-gradient-82" x1="715.73" x2="1244.47" y1="181.64" y2="165.73" xlink:href="#linear-gradient"/><linearGradient id="linear-gradient-83" x1="732.03" x2="88.39" y1="176.29" y2="160.24" xlink:href="#linear-gradient"/><linearGradient id="linear-gradient-84" x1="721" x2="1249.73" y1="356.58" y2="340.67" xlink:href="#linear-gradient"/><linearGradient id="linear-gradient-85" x1="719.17" x2="1247.91" y1="295.98" y2="280.07" xlink:href="#linear-gradient"/><linearGradient id="linear-gradient-86" x1="713.4" x2="1242.13" y1="104.08" y2="88.16" xlink:href="#linear-gradient"/><linearGradient id="linear-gradient-87" x1="630.67" x2="556.94" y1="191.16" y2="204.35" xlink:href="#radial-gradient"/><linearGradient id="linear-gradient-88" x1="938.53" x2="884.22" y1="171.53" y2="99.3" xlink:href="#radial-gradient"/><linearGradient id="linear-gradient-89" x1="799.79" x2="842.55" y1="181.28" y2="181.28" xlink:href="#radial-gradient"/><radialGradient id="radial-gradient" cx="720" cy="201.6" r="528.7" gradientUnits="userSpaceOnUse"><stop offset="0" stop-color="#0f0345"/><stop offset=".2" stop-color="#11044b"/><stop offset=".48" stop-color="#17085d"/><stop offset=".8" stop-color="#220d7a"/><stop offset="1" stop-color="#29118f"/></radialGradient><style>.cls-88{fill:#48ffff}.cls-102,.cls-104,.cls-105,.cls-106,.cls-90,.cls-91,.cls-92,.cls-93,.cls-94{fill:#240f7e}.cls-113,.cls-90{opacity:.23}.cls-100,.cls-92,.cls-96{opacity:.28}.cls-93,.cls-98{opacity:.37}.cls-94{opacity:.59}.cls-95{fill:#140845;opacity:.54}.cls-96{fill:#29118f}.cls-109{opacity:.29}.cls-98{fill:#3617bf}.cls-99{fill:#3616ba;opacity:.25}.cls-100{fill:#3817c4}.cls-102{opacity:.53}.cls-108,.cls-115{fill:none}.cls-115{stroke:#240f7e}.cls-108,.cls-115{stroke-miterlimit:10}.cls-104{opacity:.14}.cls-105{opacity:.63}.cls-106{opacity:.84}.cls-107{fill:#17094f}.cls-108{stroke:#1c0b61}.cls-108,.cls-115{stroke-linecap:round;stroke-width:.5px}.cls-109{fill:#0195e2}.cls-111{fill:#1c0b61}.cls-113{fill:#2c139c}.cls-119{fill:#160a50}.cls-120{fill:#180a55}.cls-121{fill:#1a0b5c}</style></defs><g id="Layer_2" data-name="Layer 2"><g id="Layer_5" data-name="Layer 5"><g><g><g><path fill="url(#radial-gradient)" d="M0,0V310s128.66-79.49,262-24.11C388.78,336.86,425.19,403.2,603,403.2c38.31,0,83.15-6.13,137.11-12.53,365-43.29,533-146.71,699.94-142.36V0Z"/><g><path fill="url(#linear-gradient)" d="M1006.62,93.23a1.61,1.61,0,1,0-2.21.57,1.62,1.62,0,0,0,2.21-.57"/><path fill="url(#linear-gradient-2)" d="M990,83.37a1.61,1.61,0,0,0-.56-2.21,1.62,1.62,0,1,0,.56,2.21"/><path fill="url(#linear-gradient-3)" d="M1001,80.52a1.61,1.61,0,1,0-.57-2.21,1.61,1.61,0,0,0,.57,2.21"/><path fill="url(#linear-gradient-4)" d="M991.15,97.2a1.61,1.61,0,1,0-.57-2.22,1.61,1.61,0,0,0,.57,2.22"/><path fill="url(#linear-gradient-5)" d="M1007.31,84.8a1.62,1.62,0,1,0-1.17,2,1.63,1.63,0,0,0,1.17-2"/><path fill="url(#linear-gradient-6)" d="M989.62,89.35a1.61,1.61,0,1,0-1.16,2,1.61,1.61,0,0,0,1.16-2"/><path fill="url(#linear-gradient-7)" d="M995,80.18a1.62,1.62,0,1,0-2-1.16,1.62,1.62,0,0,0,2,1.16"/><path fill="url(#linear-gradient-8)" d="M999.55,97.92a1.64,1.64,0,1,0-2-1.18,1.65,1.65,0,0,0,2,1.18"/><path fill="url(#linear-gradient-9)" d="M993.69,90.69l-1.15-4.47a1.59,1.59,0,0,1,1.15-1.94l4.47-1.15a1.59,1.59,0,0,1,1.94,1.15l1.15,4.47a1.59,1.59,0,0,1-1.15,1.94l-4.47,1.15a1.59,1.59,0,0,1-1.94-1.15"/></g><g><path fill="url(#linear-gradient-10)" d="M472.62,327.85a1.89,1.89,0,1,0-2.37-1.22,1.89,1.89,0,0,0,2.37,1.22"/><path fill="url(#linear-gradient-11)" d="M465.69,306.34a1.88,1.88,0,1,0-2.37-1.21,1.88,1.88,0,0,0,2.37,1.21"/><path fill="url(#linear-gradient-12)" d="M477.54,312.39a1.88,1.88,0,1,0,1.21-2.37,1.88,1.88,0,0,0-1.21,2.37"/><path fill="url(#linear-gradient-13)" d="M456,319.35a1.89,1.89,0,1,0,1.22-2.38,1.88,1.88,0,0,0-1.22,2.38"/><path fill="url(#linear-gradient-14)" d="M479.74,321a1.88,1.88,0,1,0-2.53.82,1.88,1.88,0,0,0,2.53-.82"/><path fill="url(#linear-gradient-15)" d="M460.77,311.31a1.88,1.88,0,1,0-2.53.82,1.87,1.87,0,0,0,2.53-.82"/><path fill="url(#linear-gradient-16)" d="M472.59,307.48a1.88,1.88,0,1,0-.82-2.53,1.88,1.88,0,0,0,.82,2.53"/><path fill="url(#linear-gradient-17)" d="M462.82,326.47a1.91,1.91,0,1,0-.82-2.56,1.91,1.91,0,0,0,.82,2.56"/><path fill="url(#linear-gradient-18)" d="M463.29,315.62l2.45-4.79a1.86,1.86,0,0,1,2.51-.81l4.8,2.45a1.87,1.87,0,0,1,.8,2.51l-2.45,4.8a1.88,1.88,0,0,1-2.51.81l-4.79-2.46a1.86,1.86,0,0,1-.81-2.51"/></g><g><path fill="url(#linear-gradient-19)" d="M1187.52,274a1.12,1.12,0,1,0-1.53.39,1.11,1.11,0,0,0,1.53-.39"/><path fill="url(#linear-gradient-20)" d="M1176,267.14a1.12,1.12,0,1,0-1.54.39,1.13,1.13,0,0,0,1.54-.39"/><path fill="url(#linear-gradient-21)" d="M1183.62,265.16a1.12,1.12,0,1,0-.4-1.54,1.13,1.13,0,0,0,.4,1.54"/><path fill="url(#linear-gradient-22)" d="M1176.78,276.74a1.12,1.12,0,1,0-.4-1.54,1.14,1.14,0,0,0,.4,1.54"/><path fill="url(#linear-gradient-23)" d="M1188,268.13a1.13,1.13,0,0,0-1.37-.81,1.13,1.13,0,0,0,.56,2.18,1.13,1.13,0,0,0,.81-1.37"/><path fill="url(#linear-gradient-24)" d="M1175.72,271.29a1.12,1.12,0,1,0-2.17.56,1.11,1.11,0,0,0,1.36.8,1.12,1.12,0,0,0,.81-1.36"/><path fill="url(#linear-gradient-25)" d="M1179.48,264.92a1.12,1.12,0,0,0-.56-2.17,1.12,1.12,0,0,0-.81,1.36,1.13,1.13,0,0,0,1.37.81"/><path fill="url(#linear-gradient-26)" d="M1182.61,277.24a1.14,1.14,0,1,0-1.38-.82,1.14,1.14,0,0,0,1.38.82"/><path fill="url(#linear-gradient-27)" d="M1178.54,272.22l-.8-3.11a1.12,1.12,0,0,1,.8-1.35l3.11-.79a1.11,1.11,0,0,1,1.35.8l.79,3.1a1.1,1.1,0,0,1-.79,1.35l-3.11.8a1.11,1.11,0,0,1-1.35-.8"/></g><g><path fill="url(#linear-gradient-28)" d="M238.65,33.54a1.88,1.88,0,1,0-1.14-2.41,1.89,1.89,0,0,0,1.14,2.41"/><path fill="url(#linear-gradient-29)" d="M246.23,12.25a1.88,1.88,0,1,0-1.15-2.41,1.87,1.87,0,0,0,1.15,2.41"/><path fill="url(#linear-gradient-30)" d="M252,24.26a1.88,1.88,0,1,0,3.55,1.26A1.88,1.88,0,0,0,252,24.26"/><path fill="url(#linear-gradient-31)" d="M230.66,16.71a1.88,1.88,0,1,0,2.41-1.15,1.88,1.88,0,0,0-2.41,1.15"/><path fill="url(#linear-gradient-32)" d="M248.46,32.44a1.88,1.88,0,1,0-2.51-.89,1.88,1.88,0,0,0,2.51.89"/><path fill="url(#linear-gradient-33)" d="M239.3,13.21a1.89,1.89,0,1,0-2.51-.9,1.89,1.89,0,0,0,2.51.9"/><path fill="url(#linear-gradient-34)" d="M251,17.35a1.88,1.88,0,1,0,.89-2.51,1.89,1.89,0,0,0-.89,2.51"/><path fill="url(#linear-gradient-35)" d="M231.71,26.49a1.91,1.91,0,1,0,.9-2.54,1.91,1.91,0,0,0-.9,2.54"/><path fill="url(#linear-gradient-36)" d="M238.68,18.16l4.86-2.31a1.85,1.85,0,0,1,2.48.88l2.32,4.86a1.88,1.88,0,0,1-.88,2.49l-4.87,2.31a1.86,1.86,0,0,1-2.48-.88l-2.32-4.87a1.86,1.86,0,0,1,.89-2.48"/></g><g><path fill="url(#linear-gradient-37)" d="M96.69,239.82a1.31,1.31,0,0,0,1.76-1.93,1.31,1.31,0,1,0-1.76,1.93"/><path fill="url(#linear-gradient-38)" d="M107.26,228.23a1.32,1.32,0,0,0,1.85-.09,1.31,1.31,0,1,0-1.85.09"/><path fill="url(#linear-gradient-39)" d="M107.7,237.46a1.31,1.31,0,1,0,1.85-.09,1.3,1.3,0,0,0-1.85.09"/><path fill="url(#linear-gradient-40)" d="M96.1,226.89a1.31,1.31,0,1,0,1.85-.08,1.31,1.31,0,0,0-1.85.08"/><path fill="url(#linear-gradient-41)" d="M103.26,241.76a1.31,1.31,0,1,0-.12-2.62,1.31,1.31,0,0,0,.12,2.62"/><path fill="url(#linear-gradient-42)" d="M102.57,227a1.31,1.31,0,1,0-1.37-1.25,1.32,1.32,0,0,0,1.37,1.25"/><path fill="url(#linear-gradient-43)" d="M109,232.78a1.31,1.31,0,0,0,2.62-.12,1.31,1.31,0,0,0-2.62.12"/><path fill="url(#linear-gradient-44)" d="M94.14,233.44a1.32,1.32,0,1,0,1.26-1.39,1.34,1.34,0,0,0-1.26,1.39"/><path fill="url(#linear-gradient-45)" d="M100.84,230l3.73-.17a1.3,1.3,0,0,1,1.36,1.23l.17,3.74a1.29,1.29,0,0,1-1.23,1.35l-3.74.17a1.29,1.29,0,0,1-1.35-1.23l-.17-3.74a1.28,1.28,0,0,1,1.23-1.35"/></g></g><g><path fill="url(#linear-gradient-46)" d="M1173.56,0h-60.63l-90.52,42.88a5.81,5.81,0,0,0-3.33,5.14l-2,95.77a5.82,5.82,0,0,0,6.51,5.91l144.87-17.12a5.82,5.82,0,0,0,5.14-5.78Z" opacity=".34"/><path fill="url(#linear-gradient-47)" d="M971.35,190.2l-119.13-2.64a4.87,4.87,0,0,1-4.76-4.87V111.24a4.87,4.87,0,0,1,2.33-4.15l119.12-73a4.87,4.87,0,0,1,7.42,4.15v147.1A4.87,4.87,0,0,1,971.35,190.2Z" opacity=".3"/><path fill="url(#linear-gradient-48)" d="M978.94,262.47,874.38,230.76a4.12,4.12,0,0,1-2.91-3.93v-56a4.13,4.13,0,0,1,3.64-4.09l104.56-16.29a4.11,4.11,0,0,1,4.59,4.08v104A4.12,4.12,0,0,1,978.94,262.47Z" opacity=".3"/><path fill="url(#linear-gradient-49)" d="M1314.87,33.3,1130.94,80.6a7.12,7.12,0,0,0-5.35,6.9V233.16a7.11,7.11,0,0,0,6.16,7.05l183.93,25.16a7.12,7.12,0,0,0,8.08-7.05V40.2A7.13,7.13,0,0,0,1314.87,33.3Z" opacity=".24"/><path fill="url(#linear-gradient-50)" d="M875.31,278.47,838,255.27a2,2,0,0,1-1-1.73V215.9a2,2,0,0,1,2.52-2l37.32,9.49a2,2,0,0,1,1.53,2v51.36A2,2,0,0,1,875.31,278.47Z" opacity=".5"/><path fill="url(#linear-gradient-51)" d="M810.57,168.9l-29,5.17a1.5,1.5,0,0,1-1.75-1.48v-21.8a1.51,1.51,0,0,1,.71-1.28l29-17.73a1.49,1.49,0,0,1,2.27,1.28v34.37A1.48,1.48,0,0,1,810.57,168.9Z" opacity=".3"/><path fill="url(#linear-gradient-52)" d="M787.08,154.35l-18.7,8.86a1.08,1.08,0,0,1-1.54-1V148.91a1.08,1.08,0,0,1,.39-.83l18.7-15.54a1.08,1.08,0,0,1,1.76.83v20A1.09,1.09,0,0,1,787.08,154.35Z" opacity=".41"/><path fill="url(#linear-gradient-53)" d="M786.51,185.94l-24.93-.61a1.5,1.5,0,0,0-1.54,1.5v19.29a1.51,1.51,0,0,0,.71,1.28l24.94,15.44a1.5,1.5,0,0,0,2.29-1.28V187.44A1.5,1.5,0,0,0,786.51,185.94Z" opacity=".3"/><path fill="url(#linear-gradient-54)" d="M809.38,253.52l-34.75-28a1.67,1.67,0,0,1-.62-1.29V202.12a1.65,1.65,0,0,1,2.14-1.58l34.76,10.69a1.67,1.67,0,0,1,1.16,1.59v39.41A1.65,1.65,0,0,1,809.38,253.52Z" opacity=".4"/><polygon fill="url(#linear-gradient-55)" points="769.79 182.38 753.9 183.09 753.9 174.13 769.79 168.83 769.79 182.38" opacity=".4"/><path fill="url(#linear-gradient-56)" d="M760.51,180.09l-15,1.76a1,1,0,0,1-1.16-1V167.65a1,1,0,0,1,.37-.79l15-12.52a1,1,0,0,1,1.7.79v23.93A1,1,0,0,1,760.51,180.09Z" opacity=".2"/><path fill="url(#linear-gradient-57)" d="M748.21,169.34,733,178.69a.85.85,0,0,0-.41.73V187a.86.86,0,0,0,.56.81l15.26,5.58a.85.85,0,0,0,1.15-.8V170.07A.86.86,0,0,0,748.21,169.34Z" opacity=".3"/><path fill="url(#linear-gradient-58)" d="M754,203.22l-11.25-7a.79.79,0,0,1-.36-.66v-7.74a.77.77,0,0,1,.87-.77l11.25,1.51a.77.77,0,0,1,.66.77v13.21A.76.76,0,0,1,754,203.22Z" opacity=".3"/><path fill="url(#linear-gradient-59)" d="M763.43,216.45l-12.07-9.75a.66.66,0,0,1-.24-.51v-9.05a.66.66,0,0,1,.92-.61l12.07,5.16a.66.66,0,0,1,.4.61v13.64A.66.66,0,0,1,763.43,216.45Z" opacity=".4"/><path fill="url(#linear-gradient-60)" d="M736.06,182.94l-7.59.86a.58.58,0,0,0-.51.57v3.2a.56.56,0,0,0,.22.44l7.59,6.12a.56.56,0,0,0,.92-.44V183.51A.57.57,0,0,0,736.06,182.94Z" opacity=".4"/><path fill="url(#linear-gradient-61)" d="M741.18,176.11l-5.93,2.78a.57.57,0,0,1-.8-.51v-5.76a.54.54,0,0,1,.15-.38l5.92-6.53a.56.56,0,0,1,1,.38v9.51A.55.55,0,0,1,741.18,176.11Z" opacity=".3"/><path fill="url(#linear-gradient-62)" d="M715.12,186.56l-7.75,2a.57.57,0,0,1-.71-.55V176.41a.57.57,0,0,1,.83-.51l7.75,4.07a.57.57,0,0,1,.31.5V186A.57.57,0,0,1,715.12,186.56Z" opacity=".3"/><path fill="url(#linear-gradient-63)" d="M698.88,194.39l9.37-3.78a1,1,0,0,0,.6-.9v-5.06a1,1,0,0,0-.92-1l-9.37-.43a1,1,0,0,0-1,1v9.27A1,1,0,0,0,698.88,194.39Z" opacity=".2"/><path fill="url(#linear-gradient-64)" d="M690.75,189l9.47-1.33a1,1,0,0,0,.89-1V176.45a1,1,0,0,0-.67-1L691,171.85a1,1,0,0,0-1.41,1V188A1,1,0,0,0,690.75,189Z" opacity=".3"/><path fill="url(#linear-gradient-65)" d="M675.12,179.41l18.08,1.85a.91.91,0,0,0,1-.91v-19a.94.94,0,0,0-.34-.72l-18.09-14.43a.92.92,0,0,0-1.49.72V178.5A.91.91,0,0,0,675.12,179.41Z" opacity=".3"/><path fill="url(#linear-gradient-66)" d="M650.45,219l31.24-14.77a2.09,2.09,0,0,0,1.19-1.88V175.62a2.08,2.08,0,0,0-1.58-2l-31.23-7.88a2.09,2.09,0,0,0-2.6,2v49.4A2.08,2.08,0,0,0,650.45,219Z" opacity=".4"/><path fill="url(#linear-gradient-67)" d="M669.54,225.05l20-15.1a.86.86,0,0,0,.34-.68V194.09a.85.85,0,0,0-1.06-.82l-20,5.09a.87.87,0,0,0-.64.83v25.18A.86.86,0,0,0,669.54,225.05Z" opacity=".41"/><path fill="url(#linear-gradient-68)" d="M633,175.1l27.54,2.82a2.94,2.94,0,0,0,3.24-2.93V148a2.94,2.94,0,0,0-1.36-2.48l-27.54-17.48a3,3,0,0,0-4.53,2.49v41.63A3,3,0,0,0,633,175.1Z" opacity=".2"/><path fill="url(#linear-gradient-69)" d="M597.71,187.19l36.74-.81a2.43,2.43,0,0,0,2.37-2.43V152.74a2.43,2.43,0,0,0-1.55-2.27l-36.74-14.1a2.43,2.43,0,0,0-3.3,2.27v46.12A2.42,2.42,0,0,0,597.71,187.19Z" opacity=".3"/><path fill="url(#linear-gradient-70)" d="M612.18,252.22,627.53,243a2.66,2.66,0,0,0,1.28-2.27V212a2.64,2.64,0,0,0-3.3-2.56l-15.35,3.91a2.64,2.64,0,0,0-2,2.56V250A2.65,2.65,0,0,0,612.18,252.22Z" opacity=".5"/><path fill="url(#linear-gradient-71)" d="M589.76,99.42,612,113.55a1.64,1.64,0,0,1,.77,1.39v32.5a1.65,1.65,0,0,1-2.17,1.57l-22.27-7.36a1.66,1.66,0,0,1-1.13-1.57V100.82A1.65,1.65,0,0,1,589.76,99.42Z" opacity=".6"/><path fill="url(#linear-gradient-72)" d="M161.28,0H276.39V58.27A5.91,5.91,0,0,1,269,64L165.73,37.69A5.92,5.92,0,0,1,161.28,32Z" opacity=".5"/><path fill="url(#linear-gradient-73)" d="M256.26,326.27l76.56-23.47a6.35,6.35,0,0,0,4.48-6.07v-29a6.34,6.34,0,0,0-7.56-6.23l-76.56,15a6.34,6.34,0,0,0-5.12,6.23v37.47A6.34,6.34,0,0,0,256.26,326.27Z" opacity=".4"/><path fill="url(#linear-gradient-74)" d="M26.77,199.9l173.31-3.85a6.25,6.25,0,0,0,6.12-6.25V26.47a6.25,6.25,0,0,0-4.36-6L137.38,0h-117V193.64A6.26,6.26,0,0,0,26.77,199.9Z" opacity=".39"/><path fill="url(#linear-gradient-75)" d="M137.66,333.66,260,301.89a6.44,6.44,0,0,0,4.81-6.23V143.18a6.42,6.42,0,0,0-5.77-6.4L136.7,124.25a6.43,6.43,0,0,0-7.09,6.4V327.43A6.44,6.44,0,0,0,137.66,333.66Z" opacity=".3"/><path fill="url(#linear-gradient-76)" d="M245.78,162.78l154.56,7a2.83,2.83,0,0,0,3-2.83l-.16-103.61a2.82,2.82,0,0,0-1.81-2.63L246.92,1.47a2.83,2.83,0,0,0-3.84,2.64V160A2.83,2.83,0,0,0,245.78,162.78Z" opacity=".3"/><path fill="url(#linear-gradient-77)" d="M329.53,370.58l120.81-56.84A6.34,6.34,0,0,0,454,308V196.86a6.33,6.33,0,0,0-6.46-6.32L326.7,193.23a6.33,6.33,0,0,0-6.19,6.32V364.86A6.32,6.32,0,0,0,329.53,370.58Z" opacity=".36"/><g><path fill="url(#linear-gradient-78)" d="M397.8,229.74,546.89,209a3.59,3.59,0,0,0,3.09-3.55v-110a3.58,3.58,0,0,0-1.92-3.17L399,14a3.58,3.58,0,0,0-5.25,3.17V226.19A3.59,3.59,0,0,0,397.8,229.74Z" opacity=".3"/><path fill="url(#linear-gradient-79)" d="M513,16.12l61.39,49.05a2,2,0,0,1,.77,1.6v57.68a2,2,0,0,1-2.77,1.91L511,102.8a2,2,0,0,1-1.31-1.91V17.72A2,2,0,0,1,513,16.12Z" opacity=".4"/></g><path fill="url(#linear-gradient-80)" d="M540.63,271l72.89-34.5a4.4,4.4,0,0,0,2.51-4V177.31a4.38,4.38,0,0,0-3.94-4.35l-72.89-7.44a4.37,4.37,0,0,0-4.82,4.35v97.19A4.38,4.38,0,0,0,540.63,271Z" opacity=".41"/><path fill="url(#linear-gradient-81)" d="M1399.56,0H1248V82.26a6.56,6.56,0,0,0,7.66,6.46L1394.11,65a6.56,6.56,0,0,0,5.45-6.46Z" opacity=".4"/><path fill="url(#linear-gradient-82)" d="M853,231.82l-55-20.17a2.33,2.33,0,0,1-1.53-2.2V151.39a2.34,2.34,0,0,1,1.34-2.12l55-26a2.34,2.34,0,0,1,3.35,2.11V229.62A2.35,2.35,0,0,1,853,231.82Z" opacity=".3"/><path fill="url(#linear-gradient-83)" d="M712.83,181l-9.09-2.84a.43.43,0,0,1-.3-.41v-7a.43.43,0,0,1,.68-.35l9.09,6.49a.44.44,0,0,1,.18.35v3.34A.43.43,0,0,1,712.83,181Z" opacity=".3"/><path fill="url(#linear-gradient-84)" d="M1252.65,378.2l-60.22-21.88a4.71,4.71,0,0,1-3.11-4.43V309.11a4.71,4.71,0,0,1,5.88-4.57l60.23,15.34a4.73,4.73,0,0,1,3.55,4.57v49.32A4.72,4.72,0,0,1,1252.65,378.2Z" opacity=".2"/><g opacity=".32"><path fill="url(#linear-gradient-85)" d="M1154.81,390.37a12.51,12.51,0,0,1-19,10.7l-86.66-52.47-88.42-54.86a5.77,5.77,0,0,1-2.74-4.92V177.4a5.79,5.79,0,0,1,5.53-5.78l185.24-8.22a5.79,5.79,0,0,1,6,5.78Z"/></g></g><g><path d="M447.86,30.48c4.8,2.35,9.49,4.88,14.2,7.4s9.29,5.24,13.93,7.89l27.78,15.9a0,0,0,0,1,0,.07,0,0,0,0,1-.07,0L475.6,46.47c-4.69-2.56-9.4-5.06-14-7.72s-9.24-5.34-13.76-8.19a0,0,0,0,1,0-.07S447.84,30.47,447.86,30.48Z" class="cls-88"/><path d="M590.09,88.76c2.65,1.56,5.18,3.29,7.71,5s4.94,3.62,7.39,5.46q7.38,5.47,14.7,11s0,0,0,.07a.06.06,0,0,1-.07,0q-7.58-5.2-15.1-10.46c-2.52-1.75-5.07-3.45-7.51-5.3s-4.87-3.71-7.19-5.74a0,0,0,0,1,0-.07S590.07,88.75,590.09,88.76Z" class="cls-88"/><path d="M465.93,278.81c5.19-2.21,10.46-4.22,15.72-6.24s10.59-3.84,15.9-5.73l31.86-11.3a0,0,0,0,1,.06,0,0,0,0,0,1,0,.06l-31.61,12c-5.28,2-10.53,4-15.84,5.92s-10.64,3.72-16,5.39a.06.06,0,0,1-.07,0A0,0,0,0,1,465.93,278.81Z" class="cls-88"/><path d="M600,251.61c-8.17,4.77-16.44,9.34-24.7,13.93l-12.45,6.77L550.38,279l-50,26.76a.07.07,0,0,1-.07,0,.06.06,0,0,1,0-.07L550,278.29l12.41-6.85,12.45-6.78c8.34-4.43,16.68-8.87,25.12-13.13a0,0,0,0,1,.07,0A0,0,0,0,1,600,251.61Z" class="cls-88"/><path d="M484.84,349.49c6.49-4.84,13.1-9.49,19.69-14.17l10-6.89,10-6.82,40.09-27.3s.06,0,.07,0a0,0,0,0,1,0,.07L525,322.27l-9.92,7-10,6.9c-6.7,4.52-13.39,9.06-20.2,13.42a.05.05,0,0,1-.07,0S484.82,349.5,484.84,349.49Z" class="cls-88"/><path d="M437.9,399.63c5.61-4.58,11.35-9,17.08-13.43s11.59-8.68,17.41-13l34.91-25.87a.05.05,0,0,1,.06.08l-34.49,26.43c-5.75,4.4-11.47,8.84-17.29,13.15s-11.66,8.58-17.62,12.71a.05.05,0,1,1-.06-.08Z" class="cls-88"/><path d="M274.9,176.43c12-.06,24,.09,36,.22l18,.34,18,.42,72,1.69a0,0,0,0,1,.05.05.05.05,0,0,1-.05,0l-72-1-18-.23-18-.33c-12-.32-24-.61-36-1.12a.05.05,0,0,1,0-.05A0,0,0,0,1,274.9,176.43Z" class="cls-88"/><path d="M281.94,188.09c2.65-.28,5.31-.36,8-.45s5.31.05,8,.1q8,.13,15.92.35a.05.05,0,0,1,0,0,0,0,0,0,1,0,.05q-8,.23-15.92.35c-2.66.06-5.31.17-8,.1s-5.31-.16-8-.45a.05.05,0,0,1-.05-.05A0,0,0,0,1,281.94,188.09Z" class="cls-88"/><path d="M32.07,377.45l17.56-5.07,17.58-5,35.17-10,35.21-9.79,35.24-9.7,140.95-38.84a0,0,0,0,1,.06,0s0,.05,0,.06L173.05,338.7l-35.19,9.89-35.21,9.8L67.38,368l-17.63,4.81L32.1,377.54s-.06,0-.06,0S32,377.45,32.07,377.45Z" class="cls-88"/><path d="M42.71,342.65c11.49-3.52,23-6.83,34.58-10.16l17.35-4.85L112,322.87l69.48-19.11a.05.05,0,0,1,.07,0s0,.06,0,.06l-69.29,19.79L94.9,328.59l-17.34,4.87c-11.59,3.15-23.18,6.32-34.82,9.28a0,0,0,0,1-.06,0A0,0,0,0,1,42.71,342.65Z" class="cls-88"/><path d="M408.57,322,397,326.42l-11.61,4.35-23.23,8.7L338.85,348l-23.33,8.44-93.28,33.79a0,0,0,0,1-.06,0,0,0,0,0,1,0-.06l93-34.45,23.26-8.62,23.29-8.54,23.35-8.36L396.83,326l11.7-4.1a.07.07,0,0,1,.07,0S408.59,322,408.57,322Z" class="cls-88"/><path d="M123.91,216c-2.48.29-5,.36-7.44.45s-5,0-7.44-.1q-7.45-.13-14.89-.35a0,0,0,0,1,0-.1q7.44-.23,14.89-.35c2.48-.05,5-.17,7.44-.1s5,.16,7.44.45a.06.06,0,0,1,0,.06A.07.07,0,0,1,123.91,216Z" class="cls-88"/><path d="M123.91,205.43c-5.19.48-10.39.75-15.59,1s-10.41.35-15.61.49l-31.23.82a0,0,0,0,1,0-.05.05.05,0,0,1,0-.05l31.2-1.52c5.2-.25,10.4-.56,15.6-.69s10.42-.22,15.63-.13a0,0,0,0,1,0,0S123.94,205.42,123.91,205.43Z" class="cls-88"/><path d="M212,73a60.75,60.75,0,0,1,6.2.55c2.06.26,4.09.71,6.12,1.09q6.1,1.13,12.21,2.34s0,0,0,0,0,0-.06,0q-6.17-.78-12.32-1.64c-2-.28-4.11-.5-6.15-.9A61.26,61.26,0,0,1,212,73.06s0,0,0-.06S212,73,212,73Z" class="cls-88"/><path d="M181.52,22.94c8.45,2.26,16.84,4.73,25.24,7.18l12.55,3.81,12.53,3.89L282,53.38a0,0,0,0,1,0,.06,0,0,0,0,1-.06,0L231.61,38.59,219,34.88l-12.55-3.81c-8.34-2.62-16.69-5.23-25-8,0,0,0,0,0-.06A0,0,0,0,1,181.52,22.94Z" class="cls-88"/><path d="M362,13.42c8.79,3.77,17.49,7.72,26.19,11.66l13,6,13,6.12L466,61.67s0,0,0,.06a0,0,0,0,1-.06,0L413.83,38l-13-5.94-13-6c-8.63-4.1-17.26-8.18-25.81-12.46a.07.07,0,0,1,0-.07A0,0,0,0,1,362,13.42Z" class="cls-88"/><path d="M534.39,134.06c4.39,1,8.72,2.2,13.06,3.38s8.61,2.58,12.9,3.9l25.77,7.95a0,0,0,0,1,0,.06s0,.05-.06,0l-26-7.28c-4.33-1.22-8.67-2.38-13-3.71s-8.58-2.7-12.81-4.24c0,0,0,0,0-.06A.06.06,0,0,1,534.39,134.06Z" class="cls-88"/><path d="M696.51,172.7l-24.23-10.28-24.2-10.37-48.39-20.73-96.61-41.9L309.93,5.5a0,0,0,0,1,0-.06.05.05,0,0,1,.07,0L503.4,88.69l96.69,41.71,48.25,21.06L672.46,162l24.09,10.61a.05.05,0,0,1,0,.07A.06.06,0,0,1,696.51,172.7Z" class="cls-88"/><path d="M648.16,229.73c3.65-2.53,7.41-4.88,11.16-7.24s7.63-4.53,11.45-6.77l23-13.4a0,0,0,0,1,.07,0,.06.06,0,0,1,0,.07l-22.61,14c-3.78,2.33-7.52,4.71-11.35,6.94s-7.68,4.42-11.63,6.46c0,0-.05,0-.07,0A0,0,0,0,1,648.16,229.73Z" class="cls-88"/><path d="M764.79,209.85l81,49.81L866,272.11l20.19,12.52,20.1,12.68,10.05,6.34,10,6.42s0,0,0,.07a0,0,0,0,1-.07,0L916.09,304l-10.15-6.19-20.28-12.37L865.47,273l-20.15-12.61-80.59-50.41a.05.05,0,1,1,.06-.08Z" class="cls-88"/><path d="M952.58,238.35l-95.66-22.17L833,210.65,809.11,205l-23.85-5.81-11.92-2.9-11.91-3s0,0,0-.06,0,0,.06,0l12,2.64,12,2.72,23.93,5.45,23.89,5.63,23.88,5.72,95.49,22.85a.06.06,0,0,1,0,.06S952.6,238.36,952.58,238.35Z" class="cls-88"/><path d="M876,297.22,927.62,331l12.9,8.43L953.38,348c8.51,5.75,17,11.49,25.45,17.41,0,0,0,0,0,.07a.06.06,0,0,1-.07,0c-8.72-5.44-17.33-11.06-25.95-16.66L940,340.26l-12.8-8.6L876,297.3a.05.05,0,1,1,.06-.08Z" class="cls-88"/><path d="M922.6,344.83,958,368c5.88,3.87,11.81,7.69,17.63,11.66s11.62,8,17.32,12.12a.05.05,0,0,1,0,.07.07.07,0,0,1-.07,0c-6-3.68-11.92-7.54-17.83-11.38s-11.69-7.87-17.52-11.83l-35-23.78a0,0,0,0,1,0-.07A.06.06,0,0,1,922.6,344.83Z" class="cls-88"/><path d="M816.46,237.15q4.47,2.22,8.89,4.52c1.49.76,3,1.46,4.42,2.33a40.63,40.63,0,0,1,4.14,2.8,0,0,0,0,1,0,.07,0,0,0,0,1-.06,0,39.78,39.78,0,0,1-4.58-2c-1.48-.75-2.88-1.65-4.31-2.5q-4.31-2.53-8.56-5.13a.05.05,0,0,1,0-.07A.06.06,0,0,1,816.46,237.15Z" class="cls-88"/><path d="M833.87,243.25c-1.66-.69-3.31-1.41-4.94-2.14a21.65,21.65,0,0,1-2.44-1.14,12,12,0,0,1-2.18-1.63,0,0,0,0,1,0-.07,0,0,0,0,1,.05,0,11.85,11.85,0,0,1,2.59.82,20.59,20.59,0,0,1,2.34,1.31q2.34,1.35,4.62,2.77s0,0,0,.07S833.89,243.25,833.87,243.25Z" class="cls-88"/><path d="M1139.68,344.83l70.2,27.17,17.55,6.79,17.52,6.87,17.45,7,8.72,3.53,8.7,3.6a0,0,0,0,1,0,.07,0,0,0,0,1-.06,0l-8.82-3.27-8.79-3.35-17.59-6.71-17.51-6.88-17.48-7-69.95-27.83a0,0,0,0,1,0-.06A0,0,0,0,1,1139.68,344.83Z" class="cls-88"/><path d="M1171.65,311l117.92,33,29.48,8.24,29.46,8.32,29.4,8.5,14.7,4.25,14.68,4.33a.05.05,0,0,1,0,.1l-14.78-4-14.75-4.08-29.51-8.15-29.45-8.33-29.43-8.42-117.72-33.63a.05.05,0,1,1,0-.1Z" class="cls-88"/><path d="M1259,303.44l74.23,17.61,18.56,4.4,18.54,4.48,18.5,4.66,9.24,2.34,9.23,2.41a.05.05,0,0,1,0,.1l-9.31-2.07-9.29-2.16-18.58-4.31-18.54-4.49L1333,321.83,1259,303.53s0,0,0-.06S1259,303.43,1259,303.44Z" class="cls-88"/><path d="M1227.17,260.81q9.27,1.2,18.54,2.47c3.09.41,6.19.77,9.26,1.3s6.14,1.1,9.18,1.85c0,0,0,0,0,.06s0,0,0,0c-3.12-.18-6.22-.58-9.31-1s-6.16-1-9.23-1.5q-9.22-1.54-18.44-3.16s0,0,0-.05A.06.06,0,0,1,1227.17,260.81Z" class="cls-88"/><path d="M1227.17,270.29c2.79.27,5.59.58,8.38.91,1.39.16,2.8.26,4.18.54a28.31,28.31,0,0,1,4.09,1.07.05.05,0,0,1,0,.07s0,0,0,0a28.28,28.28,0,0,1-4.23-.19c-1.4-.14-2.77-.46-4.15-.73-2.77-.51-5.52-1-8.28-1.61,0,0,0,0,0-.05S1227.14,270.28,1227.17,270.29Z" class="cls-88"/><path d="M1314.55,203.9l30.91.49c5.15.08,10.3.11,15.45.32s10.3.44,15.44.86c0,0,.05,0,0,.06a0,0,0,0,1-.05,0c-5.15.15-10.3.08-15.46,0s-10.29-.33-15.44-.52L1314.55,204a0,0,0,0,1,0-.05A.05.05,0,0,1,1314.55,203.9Z" class="cls-88"/><path d="M1314.55,214.9q7.74.07,15.46.24c2.58,0,5.16,0,7.73.19s5.15.35,7.71.74a0,0,0,0,1,0,.06,0,0,0,0,1,0,0c-2.59.19-5.17.16-7.75.16s-5.14-.24-7.72-.4q-7.71-.42-15.43-.93a0,0,0,0,1,0-.05A.05.05,0,0,1,1314.55,214.9Z" class="cls-88"/><path d="M1203.77,79.63q7.68-1.81,15.38-3.54c2.57-.58,5.12-1.23,7.71-1.69s5.18-.91,7.81-1.16a.05.05,0,0,1,0,.1c-2.51.81-5.07,1.41-7.63,2s-5.16,1-7.75,1.49q-7.74,1.47-15.52,2.86s0,0,0,0S1203.75,79.63,1203.77,79.63Z" class="cls-88"/><path d="M1160.82,51.09l41.49-12.71c6.92-2.12,13.81-4.29,20.76-6.29s13.91-4,20.93-5.75c0,0,0,0,.06,0a.06.06,0,0,1,0,.06c-6.85,2.33-13.76,4.46-20.66,6.61s-13.88,4.08-20.82,6.09l-41.69,12a0,0,0,0,1-.06,0A0,0,0,0,1,1160.82,51.09Z" class="cls-88"/><path d="M981.59,118.62q8.08-2.3,16.2-4.49c2.7-.75,5.39-1.55,8.12-2.18s5.47-1.22,8.26-1.64a.05.05,0,0,1,.05,0s0,0,0,0c-2.64,1-5.34,1.73-8,2.51s-5.44,1.34-8.17,2q-8.18,1.95-16.38,3.81a0,0,0,0,1-.06,0S981.56,118.62,981.59,118.62Z" class="cls-88"/><path d="M996.81,60.84q7.44-3.37,14.9-6.66c2.49-1.1,4.95-2.26,7.48-3.26s5.08-2,7.69-2.75c0,0,.06,0,.06,0a0,0,0,0,1,0,.06c-2.39,1.32-4.87,2.44-7.34,3.58s-5,2.07-7.56,3.08q-7.56,3-15.17,6a0,0,0,0,1-.06,0A0,0,0,0,1,996.81,60.84Z" class="cls-88"/><path d="M967.07,59.49l50.06-26.06,12.51-6.53,12.56-6.44C1050.61,16.25,1059,12,1067.51,8a.05.05,0,0,1,.07,0,0,0,0,0,1,0,.06c-8.24,4.55-16.58,8.91-24.91,13.28l-12.55,6.43-12.6,6.36L967.12,59.58a.05.05,0,0,1,0-.09Z" class="cls-88"/><path d="M937.47,65.72l28.66-16.29c4.78-2.72,9.53-5.48,14.37-8.09s9.69-5.19,14.63-7.6a.07.07,0,0,1,.07,0,.06.06,0,0,1,0,.07c-4.67,2.91-9.44,5.64-14.2,8.39s-9.63,5.29-14.46,7.91l-29,15.68a.06.06,0,0,1-.07,0A.07.07,0,0,1,937.47,65.72Z" class="cls-88"/><path d="M844.25,150.29c3.25-1.06,6.51-2.11,9.78-3.12,1.63-.52,3.25-1.09,4.91-1.49a42.61,42.61,0,0,1,5.06-1,.07.07,0,0,1,.06,0s0,.05,0,.05a43.32,43.32,0,0,1-4.82,1.83c-1.63.53-3.3.89-5,1.3q-5,1.26-10,2.45s0,0-.06,0A.06.06,0,0,1,844.25,150.29Z" class="cls-88"/><path d="M800.15,141.9q8.19-4.8,16.43-9.51c2.74-1.59,5.45-3.22,8.25-4.69s5.61-2.93,8.51-4.21a.06.06,0,0,1,.07,0,0,0,0,0,1,0,.06c-2.63,1.79-5.36,3.39-8.08,5s-5.55,3-8.34,4.52q-8.37,4.49-16.77,8.89s-.05,0-.07,0A0,0,0,0,1,800.15,141.9Z" class="cls-88"/><path d="M751.15,164l52.26-39.13,13.06-9.79,13.12-9.72c8.8-6.4,17.59-12.82,26.51-19.06a0,0,0,0,1,.07,0,.05.05,0,0,1,0,.07c-8.57,6.7-17.27,13.24-26,19.79l-13.13,9.71-13.17,9.63-52.68,38.57a0,0,0,0,1-.07,0A0,0,0,0,1,751.15,164Z" class="cls-88"/><path d="M788,168.05l-24.92,6.71c-4.15,1.11-8.29,2.28-12.48,3.28s-8.37,2-12.61,2.75a.07.07,0,0,1-.06,0,.05.05,0,0,1,0-.06c4.09-1.34,8.24-2.47,12.39-3.62S758.7,175,762.88,174L788,168s0,0,.06,0S788,168,788,168.05Z" class="cls-88"/><path d="M876.25,183.2l45,.15c7.51,0,15,0,22.52.14s15,.33,22.51.7a.05.05,0,0,1,0,.1c-7.51.2-15,.19-22.52.2s-15-.21-22.52-.34l-45-.85a0,0,0,0,1,0-.1Z" class="cls-88"/><path d="M876.25,193.31l27.64,1c4.6.17,9.21.29,13.81.58s9.2.61,13.79,1.12c0,0,0,0,0,.06a0,0,0,0,1,0,0c-4.61.06-9.22-.09-13.83-.22s-9.2-.5-13.8-.78l-27.61-1.7a0,0,0,0,1,0,0A0,0,0,0,1,876.25,193.31Z" class="cls-88"/></g><path fill="url(#linear-gradient-86)" d="M868.34,63.94,838,89.07a3.25,3.25,0,0,0-1.17,2.49v41.63a3.24,3.24,0,0,0,4.47,3l30.29-12.42a3.23,3.23,0,0,0,2-3V66.43A3.23,3.23,0,0,0,868.34,63.94Z" opacity=".44"/></g><g><path d="M1254.59,226.86a106,106,0,0,1-.29-46.6c17.23-14.75,8.66-24,8.66-24l0,0,0,0s20.57-27.53-10.29-50.11c0,0-10.88-8.28-34.3-9.14,0,0-15.7-1.71-23.42-4.57s-23.43-6.57-27.14-2,.85,36.29,10.57,34.29h0c2,9.43-5.43,24-6.59,27.43s4.59,6,4.59,7.62-4.86,9.23-4.57,11.81,5.43,15.14,6.85,20c.7,2.36,2.89,14.44,8.29,21.37a15.29,15.29,0,0,0,6,4.92,14,14,0,0,0,8.18.16l.2,4.6a5.32,5.32,0,0,1-4.43,5.49c-10.9,1.85-37.36,7.18-39.29,15.62l130.78,17.89C1287.3,244.05,1255.14,245.23,1254.59,226.86Z" class="cls-90"/><circle cx="1203.64" cy="159.47" r="2.27" class="cls-91"/><circle cx="1179.89" cy="161.74" r="2.27" class="cls-91"/><path d="M1200,150.36a7.89,7.89,0,0,1,3-.85,10.24,10.24,0,0,1,3.17.22,10.1,10.1,0,0,1,3,1.19,9.11,9.11,0,0,1,2.39,2c-.94-.46-1.81-1-2.75-1.33a16.7,16.7,0,0,0-2.81-.9,16,16,0,0,0-2.93-.42A20.71,20.71,0,0,0,1200,150.36Z" class="cls-91"/><path d="M1180.77,151.35c-1.6.34-3.16.5-4.69.78a18.87,18.87,0,0,0-2.26.47,7.66,7.66,0,0,0-2.14.91,3.94,3.94,0,0,1,1.86-1.63,8.57,8.57,0,0,1,2.37-.74,12.61,12.61,0,0,1,2.45-.15A9.44,9.44,0,0,1,1180.77,151.35Z" class="cls-91"/><path d="M1262.94,156.22l0,0s20.57-27.53-10.29-50.11c0,0-10.88-8.28-34.3-9.14,0,0-15.7-1.71-23.42-4.57s-23.43-6.57-27.14-2,.85,36.29,10.57,34.29h0c2,9.43-5.43,24-6.59,27.43s4.59,6,4.59,7.62-4.86,9.23-4.57,11.81,5.43,15.14,6.85,20,4.29,22,14.29,26.29c1.38.59,4.1,1.11,8.18.16,14-3.26,40.75-15.8,43-17.07,2.57-1.48-.57-10.24,0-12.52s6.57-5.29,6.57-5.29c22-16.43,12.29-26.9,12.29-26.9Z" class="cls-92"/><path d="M1182.77,178.54c-.61,1.81,4.24,4.07,9.57,2.71,1.15,2.31-6.2,8.82-3.91,12.46,6.93,9-.6,12.24-1.48,19.25-5.27-6.84-7.2-17.67-8.28-21.37-1.43-4.86-6.58-17.43-6.86-20s4.57-10.19,4.57-11.81-5.74-4.19-4.58-7.62,8.58-18,6.58-27.43a125.06,125.06,0,0,0,13.9-4.24c2.79,14.64-8.07,18.76-2.19,37.45C1191.44,165,1182.77,178.54,1182.77,178.54Z" class="cls-93"/><path d="M1263,156.26a5.15,5.15,0,0,0-5.51-2.39c-3.93.66-9.92,6.86-9.63,12.29s-4.29,9.69-4.29,9.69h-11.28c8.86-16.29,8.42-26.55,8.42-26.55-4.86-2.28-10-10.57-10-10.57,6-5.72,6.33-11.72,6.33-11.72-3.72-12.86-23.43-14.57-23.43-14.57s-11,4.44-21.25,8a125.06,125.06,0,0,1-13.9,4.24c-9.72,2-14.29-29.72-10.57-34.29s19.43-.86,27.14,2S1218.37,97,1218.37,97c23.42.86,34.3,9.14,34.3,9.14C1283.53,128.73,1263,156.26,1263,156.26Z" class="cls-94"/><path d="M1263,156.23a9.33,9.33,0,0,1,1.87,3.65,12.86,12.86,0,0,1,.38,2,16,16,0,0,1,0,2.08,17.73,17.73,0,0,1-2.79,7.75,15.55,15.55,0,0,1-1.16,1.71c-.42.55-.78,1.15-1.24,1.66l-1.37,1.56a16.79,16.79,0,0,1-1.41,1.51l-1.49,1.43a18,18,0,0,1-1.54,1.37c-1.08.86-2.17,1.71-3.27,2.53l0,0h0a41.8,41.8,0,0,0-3.7,2.05,19.25,19.25,0,0,0-1.72,1.24,4.31,4.31,0,0,0-1.3,1.61l-.1,0a4.11,4.11,0,0,1,1.13-1.87,14,14,0,0,1,1.63-1.45,27.51,27.51,0,0,1,3.66-2.36l-.07,0c1-.88,2.08-1.74,3.14-2.59s2-1.8,3-2.69a16.08,16.08,0,0,0,1.44-1.42l1.39-1.48c.47-.49.83-1.06,1.26-1.58a14.47,14.47,0,0,0,1.18-1.64,17.7,17.7,0,0,0,3-7.44,15,15,0,0,0,.1-2,12.09,12.09,0,0,0-.29-2,9.22,9.22,0,0,0-1.69-3.66Z" class="cls-91"/></g><g><path d="M762.13,208.36l21.81,13.43c-3.5-3.79-6.25-8.14-8.29-10.44a3,3,0,0,1-.75-2l-.11-3a2.06,2.06,0,0,0,.35,0c3.73-.43,3.6-4,4.34-8.18a6.67,6.67,0,0,0-.18-3.14.57.57,0,0,0,.64-.29c1.24-2.81.19-6.24-3-5.87-6.86.8-8.12,2.3-8.93,3.74,0,0-3.28,5.5.38,9.8h0a7.68,7.68,0,0,0,.94,1.43L769,206c-.05.48-.27,1.08-.75,1.15C766.14,207.44,762.13,208.36,762.13,208.36Z" class="cls-95"/><path d="M776.92,188.83c-6.87.8-8.12,2.3-8.93,3.74,0,0-3.28,5.5.38,9.8a6.83,6.83,0,0,0,6.77,3.94,4.33,4.33,0,0,0,1.14-.28,2.37,2.37,0,0,0,.36-.17.3.3,0,0,0,.11-.06,2.63,2.63,0,0,0,.33-.2l.08-.06.21-.18a2.19,2.19,0,0,0,.21-.23,1.37,1.37,0,0,0,.22-.27c.07-.11.15-.2.22-.33a4.93,4.93,0,0,0,.41-.9c.06-.17.12-.34.17-.52,0,0,0,0,0-.05.06-.21.11-.4.16-.62s.08-.4.12-.61.08-.47.12-.72.11-.62.16-1c.09-.64.19-1.32.31-2a6.82,6.82,0,0,0,.09-1.73c0-.15,0-.29,0-.44s0,0,0-.08-.06-.29-.1-.45a2.4,2.4,0,0,0-.12-.44.57.57,0,0,0,.64-.29C781.17,191.89,780.12,188.46,776.92,188.83Zm1.73,6,.12,0Z" class="cls-96"/><path fill="#140845" d="M779.94,194.7a.57.57,0,0,1-.64.29c-1.19-.1-3.72-1.75-8-.16.22.54-1.64,4.37-1.75,4-.87-2.78-2,.05-.59,1.31-1.3.53-.2,1.9-.55,2.24-3.66-4.3-.38-9.8-.38-9.8.81-1.44,2.06-2.94,8.93-3.74C780.12,188.46,781.17,191.89,779.94,194.7Z" opacity=".29"/><path d="M779.48,198.13c-.12.7-.22,1.38-.31,2,0,.34-.1.65-.16,1s-.07.49-.12.72-.07.42-.12.61-.1.41-.16.62c0,0,0,0,0,.05-.05.18-.11.35-.17.52a4.93,4.93,0,0,1-.41.9c-.07.13-.15.22-.22.33a1.37,1.37,0,0,1-.22.27,2.19,2.19,0,0,1-.21.23l-.21.18-.08.06a2.63,2.63,0,0,1-.33.2.3.3,0,0,1-.11.06,2.37,2.37,0,0,1-.36.17s0-.06-.06-.09c-1.28-3.15.65-3.24.59-3.75,0-.34-.62-.59-.79-.91a.61.61,0,0,1,0-.5c.14-.25,1.2,0,1.12-.34-.13-.55-.5-1-.67-1.55a13.8,13.8,0,0,1-.32-4.65c1.47.2,2.48.7,3.11.75a2.4,2.4,0,0,1,.12.44c0,.16.07.3.1.45s0,.06,0,.08,0,.29,0,.44A6.82,6.82,0,0,1,779.48,198.13Z" class="cls-98"/><circle cx="774.79" cy="197.58" r=".49" class="cls-95"/><circle cx="777.86" cy="197.58" r=".49" class="cls-95"/></g><path d="M649.56,168.7l-.55-2.33c2.9-.6,3.56-2.49,4.81-7.3a21.78,21.78,0,0,0-.84-10.13,2.8,2.8,0,0,0,1.09-.42,2.65,2.65,0,0,0-1-4.41,12.64,12.64,0,0,0-15.19,3.07c-.71.84-3.92,14.86,1.17,12.26.06.22.13.45.2.66l-.11,0,.88,5.76a2.69,2.69,0,0,1-.13,1.35c-1.75,4.5-6.92,7.91-6.92,7.91l27.54,2.82C649.62,174.49,649.56,168.7,649.56,168.7Z" class="cls-99"/><path d="M653.44,148.81l-.46.13c-2.23.57-7.09,1.1-9,.15.21,1.9-.38,9.65-3.69,3.81-.78-1.38,1.16,5.23-1.21,6.55,1.18,4.12,4.26,7.08,7.88,7.08,4.64,0,5.36-1.69,6.86-7.46a21.78,21.78,0,0,0-.84-10.13A4.28,4.28,0,0,0,653.44,148.81Z" class="cls-100"/><path d="M653.82,159.07c-1.5,5.77-2.22,7.46-6.86,7.46a6.34,6.34,0,0,1-1.16-.1,3.28,3.28,0,0,0,2.51-1,4.91,4.91,0,0,0,1-2.53c.07-.34.12-.73-.15-1,.44,0,.56-.63.57-1.09v-1.14a.59.59,0,0,1,.08-.32.5.5,0,0,1,.26-.14,5.51,5.51,0,0,0,1.75-1.14.37.37,0,0,0,.15-.22c0-.15-.12-.26-.24-.35a3.14,3.14,0,0,1-.89-1.87,15,15,0,0,1,0-2.12,13.4,13.4,0,0,0-.35-3,5.39,5.39,0,0,0-.38-1.11,23.41,23.41,0,0,0,2.94-.51A21.78,21.78,0,0,1,653.82,159.07Z" class="cls-98"/><g><path d="M90.88,136c4.21-18.76,1.84-27.08.26-33.82-15-12.83-7.54-20.88-7.54-20.88l0,0,0,0s-17.89-24,9-43.6c0,0,9.46-7.2,29.84-7.95,0,0,13.66-1.49,20.38-4S163.16,20,166.39,24s-.74,31.58-9.19,29.84h0c-1.73,8.2,4.73,20.88,5.73,23.86s-4,5.22-4,6.63,4.22,8,4,10.28-4.72,13.18-6,17.4c-.61,2.06-2.51,12.56-7.21,18.59a13.12,13.12,0,0,1-5.22,4.28c-2.27.81,1.38,1.2-1.36.6v10.73c-.11,2.34,22,17.11,24.35,17.13,26.24.18,26.55,25.46,28.23,32.8l-166.65,3.7C56.3,184.39,90.4,152,90.88,136Z" class="cls-90"/><circle cx="135.21" cy="84.08" r="1.98" class="cls-91"/><circle cx="155.88" cy="86.06" r="1.98" class="cls-91"/><path d="M138.36,76.15a21.33,21.33,0,0,0-2.65,0,16.24,16.24,0,0,0-2.53.37,15.06,15.06,0,0,0-2.44.78c-.81.31-1.58.72-2.42,1.11a7.92,7.92,0,0,1,2.06-1.81,8.68,8.68,0,0,1,5.35-1.23A6.7,6.7,0,0,1,138.36,76.15Z" class="cls-91"/><path d="M155.11,77a8.06,8.06,0,0,1,2.11-.37,10.17,10.17,0,0,1,2.13.13,7,7,0,0,1,2.07.65A3.43,3.43,0,0,1,163,78.89a6.81,6.81,0,0,0-1.89-.74c-.64-.16-1.29-.3-2-.4C157.86,77.51,156.51,77.36,155.11,77Z" class="cls-91"/><path d="M83.62,81.25l0,0s-17.89-24,9-43.6c0,0,9.46-7.2,29.84-7.95,0,0,13.66-1.49,20.38-4S163.16,20,166.39,24s-.74,31.58-9.19,29.84h0c-1.73,8.2,4.73,20.88,5.73,23.86s-4,5.22-4,6.63,4.22,8,4,10.28-4.72,13.18-6,17.4-3.73,19.15-12.43,22.87c-1.21.52-3.57,1-7.12.15-12.22-2.84-35.46-13.75-37.39-14.86-2.23-1.28.5-8.9,0-10.89s-5.72-4.6-5.72-4.6C75.15,90.39,83.6,81.28,83.6,81.28Z" class="cls-92"/><path d="M153.38,100.67c.52,1.57-3.7,3.54-8.33,2.36-1,2,5.39,7.67,3.4,10.84-6,7.8.52,10.65,1.29,16.74,4.58-6,6.26-15.37,7.2-18.59,1.25-4.23,5.73-15.16,6-17.4s-4-8.87-4-10.28,5-3.64,4-6.63-7.47-15.66-5.72-23.86a109.36,109.36,0,0,1-12.1-3.69c-2.43,12.74,7,16.32,1.91,32.59C145.83,88.88,153.38,100.67,153.38,100.67Z" class="cls-93"/><path fill="#240f7e" d="M83.6,81.28a4.5,4.5,0,0,1,4.8-2.08c3.42.58,8.63,6,8.38,10.7s3.73,8.43,3.73,8.43h9.81c-7.7-14.18-7.32-23.1-7.32-23.1,4.23-2,8.73-9.2,8.73-9.2-5.18-5-5.5-10.2-5.5-10.2,3.23-11.19,20.38-12.68,20.38-12.68s9.55,3.87,18.49,7a109.36,109.36,0,0,0,12.1,3.69C165.65,55.59,169.63,28,166.39,24s-16.9-.75-23.61,1.74-20.38,4-20.38,4c-20.38.75-29.84,8-29.84,8C65.71,57.33,83.6,81.28,83.6,81.28Z" opacity=".44"/><path d="M83.64,81.32a7.88,7.88,0,0,0-1.45,3.18,10,10,0,0,0-.25,1.73A12.83,12.83,0,0,0,82,88a15.44,15.44,0,0,0,2.57,6.44,13.26,13.26,0,0,0,1,1.42c.37.46.68,1,1.09,1.38l1.21,1.28a14.63,14.63,0,0,0,1.26,1.23c.89.77,1.72,1.6,2.64,2.33s1.83,1.49,2.73,2.26l-.07,0a23.74,23.74,0,0,1,3.18,2.07,13.13,13.13,0,0,1,1.41,1.28,3.57,3.57,0,0,1,1,1.64l-.1,0a3.71,3.71,0,0,0-1.14-1.38,15.61,15.61,0,0,0-1.5-1.06,35,35,0,0,0-3.23-1.77h0l0,0c-1-.71-1.9-1.45-2.84-2.19s-1.77-1.63-2.64-2.45-1.61-1.8-2.41-2.68c-.41-.45-.72-1-1.09-1.45a15,15,0,0,1-1-1.49A15.54,15.54,0,0,1,81.62,88a12.15,12.15,0,0,1,0-1.81,10.56,10.56,0,0,1,.34-1.78,8,8,0,0,1,1.63-3.18Z" class="cls-91"/></g><g><g><path d="M154.69,283.36c-.34,0-.64-.06-.9-.11Z" class="cls-91"/><path d="M152.8,183.38c.94-10.59,23-21.73,40.28-22.51l2.38-.11c14.54-.51,31.78,1,44.29,8.47a15.1,15.1,0,0,1,3.41,4.06c15.18,24.3,1.67,44.5,1.67,44.5s7.07,5.81-2.11,16.17c-4.93,5.56-7.4,7.45-9.13,8.29.37,6.64.55,15,.74,21.38,1.09,37.14,22.64,39,22.64,39l-116.3,30.22c49.7-20.54,45.55-54,45.55-54l-8-4.08c-7.71,1.09-14.52.73-14-3.3,1-7.37-2.12-20.3-8.78-38.84a18.8,18.8,0,0,1,0-7.77c.94-3.77,4.38-7.55,4.12-10.29-.35-3.58-2.74-16.87.56-19.41C155.6,194.64,152,192.06,152.8,183.38Z" class="cls-90"/></g><path d="M193.08,160.87l2.38-.11c14.58-.48,31.78,1,44.29,8.47a14.67,14.67,0,0,1,3.41,4.06c15.18,24.3,1.67,44.5,1.67,44.5s7.07,5.81-2.11,16.17-9.84,8-13,9.74C225,246.3,227.63,256.92,224,259s-23.5,10.17-33.67,13.15c-10.51,3.09-26.94,5.53-26.09-.65,1-7.37-2.12-20.3-8.78-38.84a18.8,18.8,0,0,1,0-7.77c.94-3.77,4.38-7.55,4.12-10.29-.35-3.58-2.74-16.87.56-19.41-4.58-.52-8.15-3.1-7.38-11.78C153.74,172.79,175.77,161.65,193.08,160.87Z" class="cls-92"/><path d="M155.5,232.63c6.66,18.54,9.79,31.46,8.78,38.84a2.61,2.61,0,0,0,0,1c13.84,12,3.28-19.76,5.86-20.08,6.68-.82,1.52-7-3.19-3.58-1.45-1.91,11.36-17.15-.35-17.15-6.73,0,11.35-16.63,7.89-23.55-1.09-3.73-3-11.85,1.46-17.27a57.57,57.57,0,0,0-11.71,3.27,8.14,8.14,0,0,1-4.12,1c-3.27,2.57-.88,15.83-.54,19.39.26,2.75-3.18,6.53-4.12,10.3A18.8,18.8,0,0,0,155.5,232.63Z" class="cls-93"/><path d="M193.07,160.87l2.37-.11c14.34-.48,31.8,1,44.31,8.47a15.1,15.1,0,0,1,3.41,4.06c15.18,24.31,1.67,44.5,1.67,44.5-13.62-2.57-11.91,13.33-19.31,14.38-10.15,1.43,6.21-20,.8-20.9s-9.95-2.66-10.89-5.25,4.83-8.5,3.73-11.37c-3.1-8.19-27.34-6.84-43.17-3.76a57.57,57.57,0,0,0-11.71,3.27,8.14,8.14,0,0,1-4.12,1c-4.56-.53-8.13-3.12-7.36-11.78C153.74,172.79,175.77,161.65,193.07,160.87Z" class="cls-92"/><circle cx="196.33" cy="216.68" r="2.68" class="cls-91"/><circle cx="163.96" cy="215.22" r="2.68" class="cls-91"/><path d="M200.53,207a22.73,22.73,0,0,0-2.57-.47,17,17,0,0,0-2.57-.21c-.85,0-1.68.13-2.5.21a13.75,13.75,0,0,0-2.49.47s-.05,0-.06,0a0,0,0,0,1,0-.05,4.37,4.37,0,0,1,2.37-1.38,7.54,7.54,0,0,1,2.72,0,18.56,18.56,0,0,1,5.12,1.38.05.05,0,0,1,0,.07A0,0,0,0,1,200.53,207Z" class="cls-91"/><path d="M167.83,205.91c-1,.06-2,.19-3,.34s-1.93.26-2.89.51a19.15,19.15,0,0,0-2.81,1c-.46.19-.9.43-1.36.64l-1.32.74a.05.05,0,0,1-.07,0,0,0,0,0,1,0-.06l1.22-.91c.43-.28.84-.58,1.29-.83a19.78,19.78,0,0,1,2.79-1.32,10.1,10.1,0,0,1,3-.73,6.3,6.3,0,0,1,3.08.55.07.07,0,0,1,0,.07.05.05,0,0,1,0,0Z" class="cls-91"/><path d="M244.83,217.79a7.79,7.79,0,0,1,2.46,3.59,9.49,9.49,0,0,1,.33,4.43,17.08,17.08,0,0,1-4,7.83,59,59,0,0,1-6.1,6.25,17.46,17.46,0,0,1-3.64,2.48c-1.37.66-2.85.7-4.16,1.33,1.22-.84,2.75-1,3.94-1.76a17.86,17.86,0,0,0,3.34-2.62c2-2,4-4.13,5.85-6.32a18,18,0,0,0,4-7.33A8.77,8.77,0,0,0,244.83,217.79Z" class="cls-91"/></g><g><path d="M387.48,168.9,273.32,164l41-16.58a4.64,4.64,0,0,0,2.9-4.68l-.35-4.42c-6.32,1.1-12.2-.85-15-3.18-5.71-4.74-5.52-17.75-2.31-34a22.72,22.72,0,0,1-3.57-27,3.18,3.18,0,0,1,1.95-1.85c-.89-3.88,0-7.94,1.29-11.71a22.88,22.88,0,0,1,3.83-7.6,16.31,16.31,0,0,1,12.77-5.36,25.78,25.78,0,0,1,13.39,4.53,17.84,17.84,0,0,1,5.56,5.58c3.62-1.24,7.61-.6,11.28.46,2.49.72,5,1.69,6.78,3.61,1.87,2.07,2.53,4.91,3,7.7a19.17,19.17,0,0,1,7.73,7.13c6.38,13.4,1,10.61-6.47,7.7.16.5.33,1,.46,1.52a75.42,75.42,0,0,1,2.18,22.08,25.4,25.4,0,0,0,6.86,6.73c1.32.91,2.79,1.87,3.27,3.4s-.27,3.38-1.32,4.71c-3.38,4.29-9.41,5.68-14.8,4.57a19.53,19.53,0,0,1-4.3,4.8l-2.1.14.52,11.58a4.2,4.2,0,0,0,2.11,3.46Z" class="cls-90"/><path d="M330.1,130.34a16.31,16.31,0,0,1-1.1,1.23,86.91,86.91,0,0,0,16.12.78h0c1.53-.07,3-.15,4.28-.25a19.4,19.4,0,0,0,4.29-4.8c5.4,1.11,11.43-.28,14.81-4.57,1.05-1.33,1.83-3.09,1.32-4.71s-1.95-2.49-3.27-3.4a25.4,25.4,0,0,1-6.86-6.73,74.77,74.77,0,0,0-2.18-22.08c-.08-.36-.17-.71-.28-1a2.59,2.59,0,0,0-.14-.45c-3.39-1.33-7.2-2.68-10.51-2.54a7.53,7.53,0,0,0-5,1.9c-2,1.65-6.36,4.12-7.59.51-5.27-19.51-30.76,11.58-4,41.78A3.39,3.39,0,0,1,330.1,130.34Z" class="cls-100"/><path d="M368.5,122.73c-3.38,4.29-9.4,5.68-14.8,4.57,2.54-3.78,5.38-10,6-19.41a25.25,25.25,0,0,0,6.86,6.73c1.32.92,2.79,1.87,3.27,3.41S369.55,121.4,368.5,122.73Z" class="cls-102"/><path d="M359.82,104.12c0,.63,0,1.25,0,1.85s-.05,1.3-.1,1.92c-.61,9.41-3.45,15.63-6,19.41-.14.21-.28.41-.43.61s-.27.39-.41.57l-.38.49c-.4.51-.79.95-1.14,1.33s-.65.68-.92.93a5.4,5.4,0,0,1-.48.43l-.28.24-.26.2c-1.31.1-2.75.18-4.28.25-3.68-13.2,8.45-11.74,4.88-12.81-2.79-.84-.74-2.14.23-2.06,2.28.19.06-5.2-1.05-10.3a1.07,1.07,0,0,1,.61-1.21,22.21,22.21,0,0,0,3.82-2.24,1.07,1.07,0,0,0,0-1.65l-6-5.09a3.7,3.7,0,0,1-1-1.08,3.37,3.37,0,0,1-.17-2.13c2-11,.09-12,.09-12,3.31-.15,7.12,1.2,10.51,2.54a1.73,1.73,0,0,1,.14.44,10.93,10.93,0,0,1,.29,1.06A80,80,0,0,1,359.82,104.12Z" class="cls-93"/><circle cx="334.77" cy="96.89" r="1.66" class="cls-91"/><circle cx="352.84" cy="92.46" r="1.66" class="cls-91"/><path d="M293.26,88.36A22.93,22.93,0,0,1,296,74.1a3.22,3.22,0,0,1,1.95-1.84c-.89-3.88,0-7.94,1.29-11.72A22.74,22.74,0,0,1,303,53a16.31,16.31,0,0,1,12.77-5.37,25.87,25.87,0,0,1,13.39,4.53,17.77,17.77,0,0,1,5.56,5.59c3.62-1.25,7.61-.61,11.28.45,2.5.72,5,1.69,6.78,3.61,1.87,2.07,2.53,4.91,3,7.7-17.19-8.94-49.61,2.28-54.91,25.31-.5,2.16-.95,4.28-1.36,6.34A22.94,22.94,0,0,1,293.26,88.36Z" class="cls-102"/><path fill="none" stroke="#240f7e" stroke-miterlimit="10" d="M353.71,127.3c2.54-3.78,5.37-10,6-19.4a25.51,25.51,0,0,0,6.86,6.72c1.32.92,2.79,1.87,3.27,3.41s-.27,3.37-1.32,4.7C365.13,127,359.1,128.41,353.71,127.3Z" opacity=".12"/><path d="M351.67,129.94a15.39,15.39,0,0,1-1.48,1.51A18.06,18.06,0,0,0,351.67,129.94Z" class="cls-104"/><path d="M358.6,91.09c.2,1.1.36,2.17.51,3.21Q358.9,92.74,358.6,91.09Z" class="cls-104"/></g><g><path d="M418.37,300.75c-2.49-1-3.26-9.22-3.52-14.66a49.79,49.79,0,0,0,16.53.35s1.38-27-1.17-38.55-10.69-44.55-43.61-34.21c0,0-15.86-7.94-30.68,1s-18,27.88-2.53,34h0a2.44,2.44,0,0,0,.5.16,40,40,0,0,0,0,9.21c.44,4.12,3.89,11.88,4.82,14.56,2.28,6.56,8.06,19.86,14.55,19.87a33.09,33.09,0,0,0,4.51-.35c.83,5.37,1.78,12.09,1.75,14.66-.05,4.55-3.51,2.9-19.77,20.65s-16.52,36.77-16.52,36.77L447,315.3C443.39,308.3,421,301.84,418.37,300.75Zm-65-52.13-.12-.06Z" class="cls-99"/><path d="M352.54,248.16l.28.17.42.21a.8.8,0,0,0,.16.08,3.65,3.65,0,0,0,.5.15,18.79,18.79,0,0,1,.94-4.07c.91-2.43,1.13-8.7,1.17-13.13-2.25.71-4.36,2.19-6.5,5.51a8.61,8.61,0,0,0-1.49,4.28C347.88,244.86,350.55,246.85,352.54,248.16Z" class="cls-91"/><path d="M373.24,292.42c9,0,22.43-4.84,29.84-9.48a57,57,0,0,1-5.88-2.43c11.15-16.94,5-37.26,4-41.28s-5.46-16.09-13.72-15.87c-4.92.11-6.35-.8-6.71-1.56-.7,3.5-8.67,7.34-14.82,8.5-3.79.72-7,.34-9.9,1.27,0,4.43-.26,10.7-1.17,13.13-1.44,3.92-1.39,9.29-1,13.28s3.88,11.88,4.81,14.58C361,279.1,366.75,292.42,373.24,292.42Z" class="cls-105"/><path d="M373.24,292.42a32.31,32.31,0,0,0,4-.28c-2.85,0-6.81-5-4.53-13.36.25-1-2.95-2.18-3.18-2.79-1.07-3.22,5.09-9.05,3.26-11.46-.81-1.8-12,2.34-8.46-3,9.75-24.52-3-29.32.78-31.06-3.46.54-6.39.27-9.14,1.13,0,4.43-.26,10.7-1.17,13.13-1.44,3.92-1.39,9.29-1,13.28s3.88,11.88,4.81,14.58C361,279.1,366.75,292.42,373.24,292.42Z" class="cls-106"/><circle cx="383.52" cy="247.11" r="1.72" class="cls-107"/><circle cx="358.89" cy="248.55" r="1.72" class="cls-107"/><ellipse cx="381.35" cy="245.87" class="cls-108" rx="12.29" ry="10.5" transform="translate(131.19 624.41) rotate(-89.35)"/><path d="M371.08,243.3s-3.23-2-6,.3" class="cls-108"/><line x1="391.63" x2="402.38" y1="243.34" y2="244.22" class="cls-108"/><line x1="391.67" x2="402.38" y1="248.07" y2="244.22" class="cls-108"/><path d="M353.4,248.62s-8.8-3.9-3.89-11.54,9.7-5.51,16.4-6.78,15.59-5.71,14.83-9.46c0,0-1.55,2.72,6.7,2.51s12.7,11.86,13.72,15.88,7.2,24.35-4,41.28c0,0,17.3,8.68,34.19,5.93,0,0,1.38-27-1.17-38.55s-10.69-44.55-43.61-34.21c0,0-15.86-7.94-30.68,1S337.94,242.56,353.4,248.62Z" class="cls-99"/><path d="M352.82,248.33l.42.21Z" class="cls-109"/><ellipse cx="355.46" cy="248.65" class="cls-108" rx="12.29" ry="10.5" transform="translate(102.82 601.28) rotate(-89.35)"/><polyline fill="none" stroke="#1c0b61" stroke-linecap="round" stroke-linejoin="round" stroke-width=".5" points="345.16 246.36 353.81 249.48 344.99 249.53"/><path d="M386.8,243a4.55,4.55,0,0,0-2.38-1.18,7.81,7.81,0,0,0-1.28,0c-.44,0-.87,0-1.38,0l0-.07a2.54,2.54,0,0,1,1.32-.7,2.79,2.79,0,0,1,1.51.15,4.28,4.28,0,0,1,2.3,1.73Z" class="cls-111"/><path d="M360.74,245.13l-1.37-.07a11,11,0,0,0-1.29-.05,4.59,4.59,0,0,0-2.42,1.11l-.06-.05a5,5,0,0,1,1-1,4.23,4.23,0,0,1,1.34-.63,3.09,3.09,0,0,1,1.51-.1,2.49,2.49,0,0,1,1.3.75Z" class="cls-111"/></g><g><path d="M450.89,188.46c9-2.29,4.25-29.46,4.15-34.18-.2-1.09-1.4-4.91-7.41-18.35-5.35-12,2.88-22.54,6.48-25.18-4.73,1.43-12.6,3.55-14.59-.89-2.51-5.61-1.93-29.17,19.32-31.11s16.9,14.11,16.9,14.11c6.61-3.85,21.73,1.54,28.68,7.14s2.52,11.59,2.52,11.59h0c2.59,3.84.51,9.15,1.39,13.34s.47,5.95-.78,8.79-.73,6.7-.1,9.05c1.89,7.1-3.52,16.09-4.46,19.74s-3.11,7.84-7,9.33c-1.5.57-4.57-.11-8.09-1.3-.41,3.47.63,12.8,4.16,13.12,16.78-1.29,28.45,26.61,49,26.14L410.57,228C427.66,220.75,436.45,192.13,450.89,188.46Z" class="cls-99"/><path d="M462.16,148s3.38,7.47,3.92,9.14.54,4.52,5.95,6.82,20,9.32,23.93,7.84,6.08-5.68,7-9.33,5.82-11.47,4.46-19.74c-.4-2.4-1.15-6.22.1-9.05s1.67-4.6.78-8.79,1.2-9.5-1.39-13.34-3.28-1.13-4.63.77-1.62,10.27-28.12,11.89c0,0-4.51,0,2.71-4.46,1.43-.88,7.58-7.67,3.38-5.81-3,2.44-8.93,7.7-14.06,10.14s-4.06,13-3,15.95c0,0-5.33-12.43-9.73-6.63S460.4,152.37,462.16,148Z" class="cls-100"/><path d="M497.47,158.91c-2.19-1.76,4.06,2.3.12-10.3,2.14,2.14,7.53.76,5.88-1.48-2.94-4-5.54-9-5.21-12.81,2.45-9.37.91-9-1.91-15.06,4.78-2.79,5.21-5.85,6-6.9,1.35-1.9,2-4.6,4.63-.77s.51,9.15,1.39,13.34.47,5.95-.78,8.79-.49,6.65-.1,9.05c1.36,8.36-3.52,16.09-4.46,19.74s-3.11,7.84-7,9.33a3.83,3.83,0,0,1-1.1.18C488.83,171.53,500.48,160.85,497.47,158.91Z" class="cls-98"/><circle cx="490.56" cy="136.05" r="1.48" class="cls-91"/><circle cx="503.91" cy="136.05" r="1.48" class="cls-91"/><path d="M493.1,131a4.56,4.56,0,0,0-4.54-1.13,10.69,10.69,0,0,0-1.18.37c-.38.18-.77.34-1.15.53s-.77.38-1.15.6-.77.44-1.18.63a12.26,12.26,0,0,1,.89-1,10.86,10.86,0,0,1,1-.88,11.59,11.59,0,0,1,1.18-.72,7.42,7.42,0,0,1,1.32-.48,4.43,4.43,0,0,1,2.85.15A3.49,3.49,0,0,1,493.1,131Z" class="cls-91"/><path d="M503.47,130.57a2.76,2.76,0,0,1,2.84-1.21,2.48,2.48,0,0,1,1.43.89,2.65,2.65,0,0,1,.59,1.45c-.22-.16-.39-.33-.58-.48s-.36-.3-.55-.4a2.74,2.74,0,0,0-1.1-.48A6,6,0,0,0,503.47,130.57Z" class="cls-91"/><path d="M454.06,110.74a22.19,22.19,0,0,1,3.53-6.34,33.63,33.63,0,0,1,5.13-5.2,32,32,0,0,1,6.12-4c1.1-.54,2.25-1,3.38-1.41s2.33-.71,3.5-1l0,.09c-1.08.57-2.18,1-3.26,1.55s-2.16,1-3.19,1.66-2.1,1.13-3.1,1.77a32.7,32.7,0,0,0-3,2,33,33,0,0,0-5.23,4.87,21.87,21.87,0,0,0-3.82,6.05Z" class="cls-91"/></g><g><path d="M586.47,237.06v-4.47a7,7,0,0,0,2.87-1c2-1.44,3.42-4.65,3.72-8.58s.71-9.45,0-11.57.68-1.91.39-4.52a28.16,28.16,0,0,0-2.49-7.73c2.65-.36,1.78-6.28.88-8.16-1-2.08-5-2.89-5-2.89H571.57c-12.13.64-14,8.59-14,14.62a16.07,16.07,0,0,0,3.13,9.29s-1.64,1.61,1,4.52c1,1.11,1.87,2.15,2.67,3,0,0,1.82,10.76.67,14.23C559.72,250,544.81,269,544.81,269l54.24-25.38Z" class="cls-99"/><path d="M593.45,206.92a28.16,28.16,0,0,0-2.49-7.73,2.17,2.17,0,0,1-.9-.05c-3.74-.94-13.26-4.56-17.69-3s-5.7,3.56-4.62,4.7,4.74,3,4.18,4.15-2.24,1.08-2.77,2.22.73,8.57-.07,8.78-2.45-3.37-3.22-4.39a3.08,3.08,0,0,0-5.12.47s-1.64,1.61,1,4.52,4.32,5.44,6.34,5.44,2,4.32,2,4.32.8,4.53,6.33,5.74,10.87,1,12.88-.48,3.42-4.65,3.72-8.58.71-9.45,0-11.57S593.74,209.53,593.45,206.92Z" class="cls-100"/><path d="M593.06,211.45c.71,2.11.31,7.64,0,11.56s-1.71,7.15-3.72,8.58a8.5,8.5,0,0,1-3.87,1.14c4-3.55,4.32-7.3,2.33-8.86-2.66-1.86,1.66-5.69.36-5.83-1.88-1,2.33-.69,2.52-1.45.27-1.11-4.16-4.67-3.57-8.87s-.19-6.09-1.67-9.94c1.86.56,3.5,1.08,4.62,1.36a2.25,2.25,0,0,0,.91.07,28.43,28.43,0,0,1,2.48,7.71C593.75,209.54,592.36,209.34,593.06,211.45Z" class="cls-98"/><path d="M590.93,206.54a2,2,0,0,1,1-.72,2.56,2.56,0,0,1,1.2,0,4.68,4.68,0,0,1,1.17.3,3.21,3.21,0,0,1,1,.7,0,0,0,0,1,0,.07,0,0,0,0,1-.06,0,3.45,3.45,0,0,0-2.06-.28,6.09,6.09,0,0,1-1,.19,3.52,3.52,0,0,1-1.15-.17s-.06,0-.05-.07Z" class="cls-91"/><path d="M581.1,206.57a3.79,3.79,0,0,1-1.12.31,7.31,7.31,0,0,1-1,0,3.93,3.93,0,0,0-2,.53,0,0,0,0,1-.07,0s0,0,0-.06a3.7,3.7,0,0,1,.87-.8,5,5,0,0,1,1.12-.46,2.74,2.74,0,0,1,1.2-.15,2,2,0,0,1,1.1.6.05.05,0,0,1,0,.08Z" class="cls-91"/><circle cx="579.57" cy="210.69" r=".89" class="cls-91"/><circle cx="590.95" cy="210.27" r=".89" class="cls-91"/><path fill="url(#linear-gradient-87)" d="M560.75,212.05a16.07,16.07,0,0,1-3.13-9.29c0-6,1.82-14,14-14.62h15.29s4,.81,5,2.89,2,9.05-1.78,8.11-13.26-4.56-17.69-3-5.7,3.56-4.62,4.7,4.74,3,4.18,4.15-2.24,1.08-2.77,2.22.73,8.57-.07,8.78-2.45-3.37-3.22-4.39A3.08,3.08,0,0,0,560.75,212.05Z" opacity=".63"/><path d="M560.75,212.05a2.78,2.78,0,0,0,.12,3.14,20.26,20.26,0,0,0,2.16,2.6c.74.86,1.47,1.73,2.25,2.54a4.63,4.63,0,0,0,2.84,1.68,4.51,4.51,0,0,1-3-1.54c-.82-.8-1.55-1.67-2.3-2.52a18,18,0,0,1-2.14-2.67,3.92,3.92,0,0,1-.5-1.64A2.21,2.21,0,0,1,560.75,212.05Z" class="cls-91"/></g><path d="M1342.49,39.27a17,17,0,0,0,19.12,1.21c3.58-2.22,6.34-6.19,6-10.39.77.18,1.5-.43,2-1a13.75,13.75,0,0,0,3.68-9,9.85,9.85,0,0,0-4.57-8.4c1.18-.17,2-1.3,2.47-2.38a16.75,16.75,0,0,0,1.46-9H1269.88A7.35,7.35,0,0,0,1271,1.68a7.43,7.43,0,0,0,5.83,2c-.29,2.15-.3,4.61,1.21,6.17a4.74,4.74,0,0,0,2.27,1.26,10.13,10.13,0,0,0,2.39.27,2.5,2.5,0,0,1,1.67.39,10.51,10.51,0,0,0,1.29,1.21c1.85,15.52,9.82,32,21.39,32l.27,0,1.21,10-28.17,29.48L1384.48,67l-38.85-16.31Z" class="cls-90"/><path d="M1368.78,11.62c1.18-.17,2-1.3,2.47-2.38a16.75,16.75,0,0,0,1.46-9H1269.88A7.35,7.35,0,0,0,1271,1.68a7.43,7.43,0,0,0,5.83,2c-.29,2.15-.3,4.61,1.21,6.17a4.74,4.74,0,0,0,2.27,1.26,10.13,10.13,0,0,0,2.39.27,2.5,2.5,0,0,1,1.67.39,10.51,10.51,0,0,0,1.29,1.21c1.85,15.52,9.82,32,21.39,32,5.77,0,13.13-4.79,19.61-11.59a10.33,10.33,0,0,0,15,5.14,17,17,0,0,0,19.94,1.91c3.58-2.22,6.34-6.19,6-10.39.77.18,1.5-.43,2-1a13.75,13.75,0,0,0,3.68-9A9.85,9.85,0,0,0,1368.78,11.62Z" class="cls-92"/><path d="M1301.58,32c.08-1.78-1.91-.75-2.32-2.4-.11-1.25,4.59-9.3.24-9.71-1.61-.15-4.6.77-6.6-.23-2.41-.81,7-15.13,3.19-19.56h-10.38a40.89,40.89,0,0,0-.44,6.22,55.19,55.19,0,0,0,.42,6.71c1.74,14.62,8.93,30.12,19.44,31.85C1301.62,41.57,1300.28,37.18,1301.58,32Z" class="cls-93"/><circle cx="1306.08" cy="6.51" r="1.51" class="cls-91"/><circle cx="1291.05" cy="6.51" r="1.51" class="cls-91"/><path d="M1368.78,11.62c1.18-.17,2-1.3,2.47-2.38a16.75,16.75,0,0,0,1.46-9h-35.32a6.66,6.66,0,0,1,.48,3.82,22,22,0,0,1-1.32,5.36,5.47,5.47,0,0,1-2.51,3.26c-1.11.51-2.41.32-3.61.59-2.22.51-3.8,2.55-4.61,4.69a8.76,8.76,0,0,0-.53,4.74,5.26,5.26,0,0,0,2.78,3.74c-1.53.12-2.2,2-2.15,3.57a10.41,10.41,0,0,0,15.75,8.58,17,17,0,0,0,19.94,1.91c3.58-2.22,6.34-6.19,6-10.39.77.18,1.5-.43,2-1a13.75,13.75,0,0,0,3.68-9A9.85,9.85,0,0,0,1368.78,11.62Z" class="cls-94"/><path d="M1331.44.22h-1.37a13.27,13.27,0,0,1-.79,3.49A13.43,13.43,0,0,1,1331.44.22Z" class="cls-94"/><path d="M1285.69.22h-15.81A7.05,7.05,0,0,0,1271,1.68a7.4,7.4,0,0,0,5.82,2c-.29,2.15-.3,4.61,1.21,6.17a4.89,4.89,0,0,0,2.27,1.27,9.62,9.62,0,0,0,2.39.26,2.5,2.5,0,0,1,1.67.39c.45.37.78.94,1.3,1.22a55.19,55.19,0,0,1-.42-6.71A41.93,41.93,0,0,1,1285.69.22Z" class="cls-94"/><g><g><path d="M1136,136.42a7.34,7.34,0,0,0,.78-.09Z" class="cls-91"/><path d="M1137.59,49.76c-.82-9.18-19.91-18.83-34.91-19.51l-2.07-.1c-12.6-.44-27.54.9-38.39,7.34a13.15,13.15,0,0,0-3,3.52c-13.16,21.07-1.45,38.58-1.45,38.58s-6.13,5,1.83,14c4.28,4.82,6.42,6.46,7.91,7.18-.31,5.76-.64,13-.64,18.54,0,10.82-24.79,28.19-24.79,28.19L1136,136.42c-5.36.39-22-2.56-22-2.56l1.55-4.88c6.69.94,12.58.63,12.1-2.86-.87-6.4,1.84-17.6,7.61-33.67a16.22,16.22,0,0,0,0-6.74c-.81-3.26-3.8-6.54-3.57-8.92.3-3.1,2.38-14.62-.48-16.82C1135.17,59.52,1138.26,57.28,1137.59,49.76Z" class="cls-90"/></g><path d="M1102.68,30.25l-2.07-.1c-12.63-.41-27.54.9-38.39,7.34a12.75,12.75,0,0,0-3,3.52c-13.16,21.07-1.45,38.58-1.45,38.58s-6.13,5,1.83,14,8.53,6.94,11.26,8.44c4.09,2.26,1.82,11.46,4.93,13.24s20.37,8.81,29.18,11.4c9.11,2.68,23.36,4.79,22.62-.56-.87-6.4,1.84-17.6,7.61-33.67a16.22,16.22,0,0,0,0-6.74c-.81-3.26-3.8-6.54-3.57-8.92.3-3.1,2.38-14.62-.48-16.82,4-.45,7.06-2.69,6.39-10.21C1136.77,40.58,1117.68,30.93,1102.68,30.25Z" class="cls-92"/><path d="M1135.25,92.45c-5.77,16.07-8.48,27.27-7.61,33.67a2.29,2.29,0,0,1,0,.91c-12,10.4-2.84-17.13-5.09-17.41-5.78-.71-1.31-6.09,2.77-3.1,1.26-1.66-9.84-14.87.3-14.87,5.84,0-9.84-14.41-6.84-20.41,1-3.24,2.6-10.27-1.26-15a49.49,49.49,0,0,1,10.15,2.84,7,7,0,0,0,3.57.87c2.84,2.23.77,13.72.47,16.81-.22,2.38,2.76,5.66,3.57,8.93A16.18,16.18,0,0,1,1135.25,92.45Z" class="cls-93"/><path d="M1102.68,30.25l-2-.1c-12.43-.41-27.56.9-38.41,7.34a13.15,13.15,0,0,0-3,3.52c-13.16,21.07-1.45,38.58-1.45,38.58,11.81-2.23,10.33,11.55,16.74,12.46,8.8,1.24-5.38-17.3-.69-18.11s8.62-2.31,9.44-4.55-4.19-7.37-3.24-9.86c2.69-7.1,23.7-5.93,37.42-3.26a49.49,49.49,0,0,1,10.15,2.84,7,7,0,0,0,3.57.87c4-.46,7-2.7,6.38-10.21C1136.78,40.58,1117.68,30.93,1102.68,30.25Z" class="cls-94"/><circle cx="1099.86" cy="78.62" r="2.32" class="cls-91"/><circle cx="1127.91" cy="77.36" r="2.32" class="cls-91"/><path d="M1096.19,70.11a15.61,15.61,0,0,1,4.43-1.24,6.15,6.15,0,0,1,2.38,0,3.64,3.64,0,0,1,2,1.25,0,0,0,0,1,0,.07,0,0,0,0,1,0,0,14.6,14.6,0,0,0-2.16-.34c-.7-.06-1.42-.19-2.16-.19a15.15,15.15,0,0,0-2.22.15,19.29,19.29,0,0,0-2.23.39s0,0-.06,0S1096.17,70.12,1096.19,70.11Z" class="cls-91"/><path d="M1124.54,69.2a5.19,5.19,0,0,1,2.68-.54,8.19,8.19,0,0,1,2.63.65,16.3,16.3,0,0,1,2.42,1.16,22.25,22.25,0,0,1,2.17,1.53,0,0,0,0,1,0,.07,0,0,0,0,1-.06,0,19.57,19.57,0,0,0-2.34-1.16,15.23,15.23,0,0,0-2.43-.85c-.83-.21-1.67-.26-2.49-.42s-1.66-.26-2.56-.36h0a0,0,0,0,1,0-.05S1124.52,69.21,1124.54,69.2Z" class="cls-91"/><path d="M1057.82,79.59a7.63,7.63,0,0,0-1.72,6.81,15.81,15.81,0,0,0,3.49,6.33c1.59,1.89,3.3,3.73,5.05,5.48a15.7,15.7,0,0,0,2.88,2.28c1,.66,2.35.81,3.39,1.55-1.14-.53-2.42-.56-3.61-1.12a15,15,0,0,1-3.17-2.14,49.32,49.32,0,0,1-5.31-5.41,14.69,14.69,0,0,1-3.47-6.83,8.5,8.5,0,0,1,.3-3.85A6.79,6.79,0,0,1,1057.82,79.59Z" class="cls-91"/></g><g><path d="M881.53,187.81l88.24,2.06s-5.33-12.76-22.36-20.41-19-5.43-20.41-8.65a104.07,104.07,0,0,1-3.25-11,26.3,26.3,0,0,0,3.32-1.13c4.62-2,4.65-13.25,4.27-18.62-.16-2.2-.09-8.78-1-11.85a30.52,30.52,0,0,0-2.84-6.55,2.86,2.86,0,0,0,.31-.27h0c9.15-9.06,1.08-21.6-12.21-23.41s-22.16,8.7-22.16,8.7c-26.62,2.74-22.3,28.75-20.57,37.75s11,27.82,11,27.82A38.7,38.7,0,0,0,895.49,157c1.48,4,3.45,10,2,11.53S882,181.71,881.53,187.81Zm46.31-76.48-.06.08Z" class="cls-113"/><path fill="#0e0047" d="M928.24,110.82l-.15.21a3.11,3.11,0,0,1-.23.28l-.09.1a2.66,2.66,0,0,1-.31.26,14.56,14.56,0,0,0-1.92-2.61c-1.39-1.45-3.47-5.85-4.86-9,1.82-.19,3.78.22,6.32,1.93a6.57,6.57,0,0,1,2.37,2.59C930.55,107,929.26,109.28,928.24,110.82Z" opacity=".59"/><path d="M927.07,148.7c-6.4,2.76-17.46,3.43-24.16,2.4a45.23,45.23,0,0,0,3.44-3.54c-13.14-8.64-15-25-15.49-28.19s-1-13.13,4.91-15.51c3.54-1.43,4.28-2.52,4.3-3.17,1.58,2.28,8.43,2.57,13.17,1.51,2.92-.65,5.06-1.89,7.44-2.13,1.39,3.14,3.47,7.54,4.86,9,2.23,2.35,3.84,6.19,4.76,9.17s.88,9.65,1,11.86C931.72,135.45,931.69,146.71,927.07,148.7Z" class="cls-100"/><path d="M927.07,148.7a25.53,25.53,0,0,1-3,1c2-.85,3.33-5.62-.87-10.91-.49-.61,1.43-2.45,1.41-3-.23-2.62-6.41-4.89-5.84-7.17,0-1.53,9.28-2,5.09-4.75-14.46-14.48-6.83-21.82-10.08-21.88,2.63-.68,4.64-1.77,6.86-2,1.39,3.14,3.47,7.54,4.86,9,2.23,2.35,3.84,6.19,4.76,9.17s.88,9.65,1,11.86C931.72,135.45,931.69,146.71,927.07,148.7Z" class="cls-98"/><circle cx="905.85" cy="119.57" r="1.33" class="cls-91"/><circle cx="923.84" cy="113.04" r="1.33" class="cls-91"/><ellipse cx="907.02" cy="118.02" class="cls-115" rx="8.15" ry="9.54" transform="translate(30.15 378.24) rotate(-23.94)"/><path d="M913.54,113a4.21,4.21,0,0,1,4.38-1.63" class="cls-115"/><line x1="898.91" x2="891.52" y1="119.37" y2="123.3" class="cls-115"/><line x1="900.33" x2="891.52" y1="122.76" y2="123.3" class="cls-115"/><path d="M900.07,100.69a1.8,1.8,0,0,1-.3-.68A.84.84,0,0,1,900.07,100.69Z" class="cls-109"/><path d="M928.09,111a3.11,3.11,0,0,1-.23.28Z" class="cls-109"/><path d="M900.07,100.69a1.8,1.8,0,0,1-.3-.68A.84.84,0,0,1,900.07,100.69Z" class="cls-109"/><ellipse cx="926.31" cy="112.06" class="cls-115" rx="8.15" ry="9.54" transform="translate(34.23 385.56) rotate(-23.94)"/><polyline fill="none" stroke="#240f7e" stroke-linecap="round" stroke-linejoin="round" stroke-width=".5" points="932.95 107.27 927.74 112.15 934.04 109.47"/><path d="M902.2,117.67a3.27,3.27,0,0,1,1.08-2,2,2,0,0,1,1-.6,1.73,1.73,0,0,1,1.18.17v.07a10.7,10.7,0,0,1-1,.48c-.3.13-.61.2-.9.36a3.53,3.53,0,0,0-1.37,1.53Z" class="cls-91"/><path d="M921.41,111.14a1.78,1.78,0,0,1,.66-1,2.13,2.13,0,0,1,1.14-.38,3.05,3.05,0,0,1,1.17.06,4,4,0,0,1,1,.44l0,.07a3.49,3.49,0,0,0-2,0c-.31.11-.57.31-.87.44s-.61.27-1,.4Z" class="cls-91"/><path fill="url(#linear-gradient-88)" d="M927.77,111.41s5.07-5.48-.77-9.42-8.6-.95-13.76.21-12.86.71-13.47-2.2c0,0,1.94,1.47-4,3.85s-5.41,12.34-4.91,15.52,2.35,19.55,15.49,28.19c0,0-9.66,11.49-22.53,14.71,0,0-9.27-18.82-11-27.82s-6.05-35,20.57-37.75c0,0,8.86-10.52,22.16-8.7S936.92,102.35,927.77,111.41Z" opacity=".63"/></g><g><path fill="#240f7e" d="M1053,313.64c-9.57-5.7,2.47-40.78,2.58-46.44.24-1.31,1.69-5.9,8.9-22,6.42-14.37-3.46-27.07-7.78-30.24,5.68,1.71,15.13,4.26,17.52-1.08,3-6.73,2.32-35-23.2-37.35s-20.3,16.94-20.3,16.94c-7.94-4.63-26.1,1.85-34.45,8.58s-3,13.92-3,13.92h0c-3.12,4.6-.61,11-1.67,16s-.56,7.14.94,10.55.88,8.05.12,10.88c-2.28,8.52,4.22,19.32,5.36,23.7s3.73,9.42,8.44,11.2c1.8.69,5.49-.13,9.71-1.55.49,4.16-.75,15.37-5,15.75-20.14-1.55-28.18,5.07-37.72-.85l71.36,44.29,61.78,37.46C1087.8,368.74,1086.6,333.63,1053,313.64Z" opacity=".09"/><path d="M1053,313.64c-9.57-5.7,2.47-40.78,2.58-46.44.24-1.31,1.69-5.9,8.9-22,6.42-14.37-3.46-27.07-7.78-30.24,5.68,1.71,15.13,4.26,17.52-1.08,3-6.73,2.32-35-23.2-37.35s-20.3,16.94-20.3,16.94c-7.94-4.63-26.1,1.85-34.45,8.58s-3,13.92-3,13.92h0c-3.12,4.6-.61,11-1.67,16s-.56,7.14.94,10.55.88,8.05.12,10.88c-2.28,8.52,4.22,19.32,5.36,23.7s3.73,9.42,8.44,11.2c1.8.69,5.49-.13,9.71-1.55.49,4.16-.75,15.37-5,15.75-20.14-1.55-28.18,5.07-37.72-.85l71.36,44.29,61.78,37.46C1087.8,368.74,1086.6,333.63,1053,313.64Z" class="cls-99"/><path d="M1047.05,259.71s-4.06,9-4.71,11-.65,5.43-7.14,8.19-24,11.2-28.74,9.41-7.3-6.82-8.44-11.2-7-13.78-5.36-23.7c.48-2.89,1.38-7.47-.12-10.88s-2-5.52-.94-10.55-1.45-11.42,1.67-16,3.94-1.36,5.56.92,1.95,12.34,33.77,14.28c0,0,5.42-.06-3.25-5.35-1.72-1.06-9.11-9.22-4.06-7,3.64,2.93,10.72,9.26,16.89,12.18s4.87,15.59,3.57,19.16c0,0,6.41-14.92,11.69-8S1049.16,264.9,1047.05,259.71Z" class="cls-105"/><path d="M1004.65,272.76c2.63-2.11-4.88,2.76-.15-12.38-2.57,2.57-9,.91-7.06-1.77,3.53-4.78,6.65-10.81,6.25-15.39-2.94-11.25-1.09-10.75,2.3-18.08-5.75-3.35-6.26-7-7.16-8.29-1.62-2.28-2.43-5.52-5.56-.92s-.61,11-1.67,16-.56,7.14.94,10.55.59,8,.12,10.88c-1.63,10,4.22,19.32,5.36,23.7s3.73,9.42,8.44,11.2a4.23,4.23,0,0,0,1.32.22C1015,287.92,1001,275.09,1004.65,272.76Z" class="cls-106"/><circle cx="1012.95" cy="245.31" r="1.77" class="cls-119"/><circle cx="996.91" cy="245.31" r="1.77" class="cls-119"/><path d="M1009.89,239.21a4.2,4.2,0,0,1,2.35-2.27,5.26,5.26,0,0,1,3.37-.16,9.45,9.45,0,0,1,1.57.56,15.51,15.51,0,0,1,1.41.85,13.8,13.8,0,0,1,1.26,1c.38.38.75.77,1.09,1.18-.48-.24-.93-.52-1.39-.79s-.92-.49-1.37-.75-.92-.44-1.38-.66a10.75,10.75,0,0,0-1.43-.45,5.67,5.67,0,0,0-2.89-.08A5.58,5.58,0,0,0,1009.89,239.21Z" class="cls-120"/><path d="M997.44,238.72a6.52,6.52,0,0,0-3.18-.38,3.41,3.41,0,0,0-1.36.62c-.23.14-.41.35-.64.52s-.41.4-.66.6a4.11,4.11,0,0,1,.26-.89,4,4,0,0,1,.51-.8,3,3,0,0,1,1.68-1,3.28,3.28,0,0,1,1.94.21A3.43,3.43,0,0,1,997.44,238.72Z" class="cls-120"/><path d="M1056.67,214.93a26.5,26.5,0,0,0-4.56-7.3,39.23,39.23,0,0,0-6.27-5.88,41.33,41.33,0,0,0-3.59-2.38c-1.2-.78-2.48-1.43-3.73-2.13s-2.57-1.28-3.84-2-2.64-1.16-4-1.8l0-.1c1.4.38,2.8.79,4.18,1.26.69.25,1.36.55,2,.82s1.36.55,2,.89l1.94,1c.65.33,1.24.78,1.86,1.16,1.25.78,2.39,1.69,3.55,2.58a39.81,39.81,0,0,1,6.17,6.21,26.9,26.9,0,0,1,4.27,7.58Z" class="cls-91"/></g><g><g><path d="M805.09,214.26l47.1,17.27-20.49-24.8v-4.67a11.75,11.75,0,0,0,8.76-2.59c3.16-3.09,2.44-10.8-.23-20.33a13.5,13.5,0,0,0,.85-16.19,1.91,1.91,0,0,0-1.24-1,13.18,13.18,0,0,0-1.32-6.89,13.49,13.49,0,0,0-2.63-4.33,9.72,9.72,0,0,0-7.83-2.59,15.47,15.47,0,0,0-7.74,3.32,10.56,10.56,0,0,0-3,3.58,11.27,11.27,0,0,0-6.68.8,8.42,8.42,0,0,0-3.85,2.46,8.69,8.69,0,0,0-1.41,4.71,11.48,11.48,0,0,0-4.26,4.59c-3.16,8.26-.08,6.35,4.2,4.27-.07.31-.15.6-.2.92a45.06,45.06,0,0,0-.26,13.21,15,15,0,0,1-3.75,4.32,4.43,4.43,0,0,0-1.79,2.17,3.21,3.21,0,0,0,1,2.74c2.21,2.38,5.85,2.92,9,2a11.47,11.47,0,0,0,2.77,2.65h1.26v6.86Z" class="cls-113"/><path d="M839.13,175.44c-5-15.91-31.9-20.18-38-7.85-3.16,8.26-.08,6.35,4.2,4.27-.07.31-.15.6-.2.92-3.23,21.08,7,27.1,7,27.1a54.89,54.89,0,0,0,12.11-1.27c6.15,5.63,13.71,3.35,16.28.86C844,196,842.66,186.65,839.13,175.44Z" class="cls-96"/><path d="M814.63,199.83c-.91,0-1.77,0-2.55,0,0,0-10.22-6-7-27.09,0-.22.07-.43.12-.64a1.31,1.31,0,0,1,.06-.27,16.54,16.54,0,0,1,6.12-2s-1.1.68.62,7.12a2,2,0,0,1,0,1.27,2.09,2.09,0,0,1-.53.69l-3.33,3.3a.63.63,0,0,0,.1,1,13.29,13.29,0,0,0,2.37,1.15.64.64,0,0,1,.42.69c-.42,3.08-1.48,6.38-.14,6.16.57-.09,1.85.58.23,1.21C809.06,193.25,816.2,191.82,814.63,199.83Z" class="cls-98"/><circle cx="816.3" cy="177.07" r=".99" class="cls-121"/><circle cx="808.17" cy="176.51" r=".99" class="cls-121"/></g><path fill="url(#linear-gradient-89)" d="M840.46,199.47c-2.57,2.5-10.13,4.78-16.28-.85l-.61.13.59-.14c-.24-.21-.48-.44-.71-.68a2,2,0,0,1-.16-2.6c14.47-19.18-2.12-36.44-4.33-24.61-.56,2.2-3.27.94-4.53.05a4.48,4.48,0,0,0-3-.89,16.38,16.38,0,0,0-6.09,2h0c-4.27,2.06-7.33,3.94-4.18-4.29a11.35,11.35,0,0,1,4.26-4.59c9.78-6.12,29.55-1,33.78,12.44.4,1.26.77,2.49,1.1,3.7C842.91,188.67,843.63,196.39,840.46,199.47Z" opacity=".63"/><path d="M843.35,171.29a13.61,13.61,0,0,1-3.12,7.86c-.33-1.21-.7-2.44-1.1-3.7-4.23-13.42-24-18.56-33.78-12.44a8.72,8.72,0,0,1,1.41-4.72,8.42,8.42,0,0,1,3.85-2.46,11.27,11.27,0,0,1,6.68-.8,10.66,10.66,0,0,1,3-3.58,15.46,15.46,0,0,1,7.74-3.31,9.72,9.72,0,0,1,7.83,2.58,13.6,13.6,0,0,1,2.63,4.33,13.18,13.18,0,0,1,1.32,6.89,1.91,1.91,0,0,1,1.24,1A13.63,13.63,0,0,1,843.35,171.29Z" class="cls-98"/><path d="M817.29,155s5-.67,10.87,3.2c0,0-2.54-7-7.84-6.78A8.43,8.43,0,0,0,817.29,155Z" class="cls-104"/><path fill="#240f7e" d="M809.3,197.24c-3.15.91-6.8.37-9-2a3.18,3.18,0,0,1-1-2.73,4.38,4.38,0,0,1,1.78-2.18,14.67,14.67,0,0,0,3.76-4.32A23.08,23.08,0,0,0,809.3,197.24Z" opacity=".79"/></g></g></g></g></svg>